<svg xmlns="http://www.w3.org/2000/svg" xmlns:xlink="http://www.w3.org/1999/xlink" width="43" height="43" viewBox="0 0 43 43">
  <defs>
    <clipPath id="clip-path">
      <rect id="Rectangle_183" data-name="Rectangle 183" width="43" height="43" transform="translate(0.333)" fill="#fff"/>
    </clipPath>
  </defs>
  <g id="bi_heart" transform="translate(-0.333)" clip-path="url(#clip-path)">
    <path id="Path_62" data-name="Path 62" d="M21.516,7.391,19.588,5.409C15.061.756,6.761,2.362,3.765,8.211,2.358,10.963,2.041,14.935,4.61,20c2.474,4.881,7.622,10.728,16.906,17.1C30.8,30.733,35.945,24.886,38.422,20c2.568-5.072,2.254-9.042.845-11.794-3-5.85-11.3-7.458-15.822-2.805Zm0,32.952c-41.239-27.25-12.7-48.519-.473-37.269.161.148.32.3.473.46q.228-.238.473-.457C34.211-8.181,62.754,13.09,21.516,40.343Z" transform="translate(0 0)" fill="#028d02"/>
  </g>
</svg>
