<?xml version="1.0" encoding="utf-8"?>
<!-- Generator: Adobe Illustrator 19.0.0, SVG Export Plug-In . SVG Version: 6.00 Build 0)  -->
<svg version="1.1" id="Layer_1" xmlns="http://www.w3.org/2000/svg" xmlns:xlink="http://www.w3.org/1999/xlink" x="0px" y="0px"
	 viewBox="0 0 595.3 460.3" style="enable-background:new 0 0 595.3 460.3;" xml:space="preserve">
<style type="text/css">
	.st0{clip-path:url(#SVGID_2_);}
	.st1{clip-path:url(#SVGID_4_);fill:#FFFFFF;}
	.st2{clip-path:url(#SVGID_4_);fill:#D7D8D7;}
	.st3{clip-path:url(#SVGID_4_);fill:#FBC13C;}
	.st4{clip-path:url(#SVGID_4_);fill:#095783;}
	.st5{clip-path:url(#SVGID_4_);fill:#FDB624;}
	.st6{clip-path:url(#SVGID_4_);fill:#F04F2D;}
	.st7{clip-path:url(#SVGID_4_);fill:#303030;}
	.st8{clip-path:url(#SVGID_4_);fill:#FDB51E;}
	.st9{clip-path:url(#SVGID_4_);fill:#039FA7;}
	.st10{clip-path:url(#SVGID_4_);fill:#BC8140;}
	.st11{clip-path:url(#SVGID_4_);fill:#E54B35;}
	.st12{clip-path:url(#SVGID_4_);fill:#07A64F;}
	.st13{clip-path:url(#SVGID_4_);fill:#81CCE0;}
	.st14{clip-path:url(#SVGID_4_);fill:#AC4D9D;}
	.st15{clip-path:url(#SVGID_4_);fill:#B0332D;}
	.st16{clip-path:url(#SVGID_4_);fill:#6FAEC4;}
	.st17{clip-path:url(#SVGID_4_);fill:#4B8FC6;}
	.st18{clip-path:url(#SVGID_4_);fill:#7EC3E2;}
	.st19{opacity:0.4;clip-path:url(#SVGID_4_);}
	.st20{clip-path:url(#SVGID_6_);fill:#FFFFFF;}
	.st21{clip-path:url(#SVGID_8_);fill:#FFFFFF;}
	.st22{clip-path:url(#SVGID_10_);fill:#FFFFFF;}
	.st23{clip-path:url(#SVGID_12_);fill:#FFFFFF;}
	.st24{clip-path:url(#SVGID_4_);fill:#F3F8EC;}
	.st25{clip-path:url(#SVGID_4_);fill:#832E33;}
	.st26{clip-path:url(#SVGID_4_);fill:#FAA31A;}
	.st27{clip-path:url(#SVGID_4_);fill:#F9D748;}
	.st28{clip-path:url(#SVGID_4_);fill:#6292CD;}
	.st29{clip-path:url(#SVGID_4_);fill:#EF4223;}
	.st30{clip-path:url(#SVGID_4_);fill:#EE3E8D;}
	.st31{clip-path:url(#SVGID_4_);fill:#70BF44;}
	.st32{clip-path:url(#SVGID_4_);fill:#F08122;}
	.st33{clip-path:url(#SVGID_4_);fill:#FBDF0D;}
	.st34{clip-path:url(#SVGID_4_);fill:#2BADE4;}
	.st35{clip-path:url(#SVGID_4_);fill:#161818;}
	.st36{clip-path:url(#SVGID_4_);fill:#686969;}
	.st37{clip-path:url(#SVGID_4_);fill:#EEBA8E;}
	.st38{clip-path:url(#SVGID_4_);fill:#CE3F96;}
	.st39{clip-path:url(#SVGID_4_);fill:#105385;}
	.st40{clip-path:url(#SVGID_4_);fill:#8C5336;}
	.st41{clip-path:url(#SVGID_4_);fill:#D71E41;}
	.st42{clip-path:url(#SVGID_4_);fill:#272626;}
	.st43{clip-path:url(#SVGID_4_);fill:none;stroke:#095783;stroke-width:7;stroke-miterlimit:10;}
	.st44{clip-path:url(#SVGID_4_);fill:#F99D1C;}
	.st45{clip-path:url(#SVGID_4_);fill:#271B52;}
	.st46{clip-path:url(#SVGID_4_);fill:#6E1111;}
	.st47{clip-path:url(#SVGID_4_);fill:#AF5E27;}
	.st48{clip-path:url(#SVGID_4_);fill:#BB2928;}
	.st49{clip-path:url(#SVGID_4_);fill:#2D8DCC;}
	.st50{clip-path:url(#SVGID_4_);fill:#23A4DD;}
	.st51{clip-path:url(#SVGID_4_);fill:#212120;}
	.st52{clip-path:url(#SVGID_4_);fill:#090909;}
	.st53{clip-path:url(#SVGID_4_);fill:#3A2766;}
	.st54{clip-path:url(#SVGID_4_);fill:none;stroke:#095783;stroke-width:5;stroke-miterlimit:10;}
	.st55{clip-path:url(#SVGID_4_);fill:#1C76BC;}
	.st56{clip-path:url(#SVGID_4_);fill:#ED166F;}
	.st57{clip-path:url(#SVGID_14_);fill:url(#SVGID_15_);}
	.st58{filter:url(#Adobe_OpacityMaskFilter);}
	.st59{clip-path:url(#SVGID_17_);fill:url(#SVGID_19_);}
	.st60{clip-path:url(#SVGID_17_);mask:url(#SVGID_18_);fill:url(#SVGID_20_);}
	.st61{clip-path:url(#SVGID_22_);fill:#272D6A;}
	.st62{filter:url(#Adobe_OpacityMaskFilter_1_);}
	.st63{clip-path:url(#SVGID_24_);fill:url(#SVGID_26_);}
	.st64{clip-path:url(#SVGID_24_);mask:url(#SVGID_25_);fill:url(#SVGID_27_);}
	.st65{clip-path:url(#SVGID_29_);fill:url(#SVGID_30_);}
	.st66{filter:url(#Adobe_OpacityMaskFilter_2_);}
	.st67{clip-path:url(#SVGID_32_);fill:url(#SVGID_34_);}
	.st68{clip-path:url(#SVGID_32_);mask:url(#SVGID_33_);fill:url(#SVGID_35_);}
	.st69{clip-path:url(#SVGID_37_);fill:#272D6A;}
	.st70{filter:url(#Adobe_OpacityMaskFilter_3_);}
	.st71{clip-path:url(#SVGID_39_);fill:url(#SVGID_41_);}
	.st72{clip-path:url(#SVGID_39_);mask:url(#SVGID_40_);fill:url(#SVGID_42_);}
	.st73{clip-path:url(#SVGID_44_);fill:#FFFFFF;}
	.st74{clip-path:url(#SVGID_44_);fill:#FBC13C;}
	.st75{clip-path:url(#SVGID_44_);fill:#F99D1C;}
	.st76{clip-path:url(#SVGID_44_);fill:#D7D8D7;}
	.st77{clip-path:url(#SVGID_44_);fill:#095783;}
	.st78{clip-path:url(#SVGID_44_);fill:#72767F;}
	.st79{clip-path:url(#SVGID_44_);fill:#EE2625;}
</style>
<g>
	<defs>
		<rect id="SVGID_1_" width="595.3" height="460.3"/>
	</defs>
	<clipPath id="SVGID_2_">
		<use xlink:href="#SVGID_1_"  style="overflow:visible;"/>
	</clipPath>
	<g class="st0">
		<defs>
			<rect id="SVGID_3_" width="595.3" height="460.3"/>
		</defs>
		<clipPath id="SVGID_4_">
			<use xlink:href="#SVGID_3_"  style="overflow:visible;"/>
		</clipPath>
		<path class="st1" d="M221.5,315.2c0,0-3.5,9.2-8.5,13c-5,3.7-13.7,4.3-17,1.4c0,0-10.5,6-20.7,5.6c-10.2-0.4-27.5-7.9-29.9-24.1
			l0.3-2.5c0,0-4.3-4.2-4.5-7.5c-0.2-3.2,0-4.1,0-4.1s-4-2-3.7-6.2c0.3-4.2,0.3-2.6,0.3-2.6s-4.5-4.4-1.7-8.8
			c2.8-4.5,17-16.3,22.7-18.4c5.7-2,10.2-4.3,16.4-1c0,0,1.9-8.6,3.5-13.4c1.7-4.7,11.5-19.9,24.8-14.7c0,0-2.4,5.1-2.8,7.2
			c-0.4,2.1-0.9,18.8,0.8,21.7c0,0,14.1,11.8,15,27.5c0,0,3.9-2.3,6.9,1.7c3,4,1.8,15.6,1.3,18.1C224,310.6,221.5,315.2,221.5,315.2
			"/>
		<path class="st2" d="M138.2,287.3c0,0-4-3.7,1.9-8.7s30.6-28.2,43.7-8.8c0,0-3-10.1-13.2-11.1c-10.2-1-20.4,6.9-20.4,6.9
			l-13.3,12.2C136.9,277.9,132,284.3,138.2,287.3"/>
		<path class="st2" d="M216.1,292.7c0,0,4.4-1.7,4.9,5.3c0.3,4.4-4.2,22.9-10.6,28.5c0,0,9.7-6.8,13.2-15.8s0.7-26.2-7.7-22.3
			L216.1,292.7z"/>
		<path class="st2" d="M202.5,232.4c0,0-21.6,3.3-22.9,29.6l-4.6-2.6C174.9,259.4,180.1,225,202.5,232.4"/>
		<path class="st3" d="M224.2,308.2c0,0,17.6,12,33.8,4.5l2.1,22.4c0,0-29.7,8-45.8-8.5L224.2,308.2z"/>
		<path class="st2" d="M147.1,317.8c0,0,10.7-20.1,21.2-20.1c10.6,0,21.2,5.4,21.2,5.4s1.2-5.6-2.5-6.9c-3.7-1.3-20-4.4-20-4.4
			s-21.9,14.1-21.8,20.2C145.4,318,147.1,317.8,147.1,317.8"/>
		<path class="st4" d="M262,335.4l-0.7-2.1c-0.3,0.1-27.6,9-45.9-6.6c0.2-0.2,0.3-0.3,0.5-0.5c1-1,2-2.1,2.9-3.2
			c1.8-2.3,3.3-4.8,4.7-7.4c0.8-1.7,1.5-3.4,2.1-5.2c7.6,4.6,14.9,5.9,20.4,5.9c5.8,0,9.6-1.3,10-1.4l-0.7-2.1
			c-0.1,0-14.2,4.7-29-4.7c0.8-3.2,1.2-6.4,0.8-9.8c-0.3-3-1.4-5.9-3.2-8.4c-0.9-1.2-2.1-2.4-3.7-2.8c-1.4-0.4-2.8,0.1-3.8,0.9
			c0-0.2,0-0.4-0.1-0.7c-0.4-3.5-1.3-7-2.6-10.3c-1.3-3.3-2.9-6.6-5-9.5c-2-2.8-4.4-5.4-7-7.6c-1.2-5.9-1.8-12.1-1.1-18.1
			c0.2-1.5,0.5-3,1-4.3c0.3-0.7,0.6-1.3,0.9-1.9c0.2-0.3,0.4-0.5,0.6-0.9c0.3-0.4,0.6-1,0.6-1.5c0.2-1.1-0.3-2.3-1.2-3
			c-0.4-0.3-1.1-0.5-1.5-0.6c-0.4-0.1-0.9-0.1-1.3-0.2c-1.7-0.1-3.4,0.1-5,0.5c-6.5,1.7-11.5,6.5-14.9,11.8
			c-3.2,5.1-5,10.9-6.1,16.7c-4-1.5-8.7-1.6-12.8,0.1c-4.7,1.8-8.8,4.5-12.8,7.4c-3.9,3-7.5,6.2-10.9,9.8l0.1-0.1
			c-0.7,0.7-1.4,1.4-1.9,2.3l0,0c0,0,0,0,0,0c-0.8,1.3-1.2,2.9-1.2,4.4c0,1.3,0.4,2.5,1,3.5c0.3,0.8,0.7,1.5,1.3,2.2c0,0,0,0,0,0
			c-0.4,1.8-0.4,3.6,0.3,5.2c0.6,1.3,1.4,2.5,2.5,3.4c0.1,0.1,0.2,0.2,0.3,0.4c-0.3,1.4-0.3,2.8-0.1,4.2c0.7,2.9,2.3,5.2,4.2,7
			c0,0-0.1,0.1-0.1,0.1c-0.3,0.5-0.5,1-0.7,1.6c-0.2,0.5-0.4,1.5-0.4,2c0,2.6,0.8,4.5,1.7,6.3c0.9,1.8,2,3.5,3.3,5.1
			c5,6.2,12.3,10.5,20.1,11.8c7.8,1.4,15.7,0,22.8-2.7c1.9-0.8,3.8-1.7,5.6-2.6c0.8,0.9,2.1,1.3,3.2,1.6c1.4,0.3,2.9,0.4,4.4,0.3
			c2.9-0.2,5.9-1.2,8.4-2.9c0.5-0.3,0.9-0.6,1.3-1c9,7.8,19.9,9.9,29.2,10C253.5,338.2,261.8,335.5,262,335.4 M138.5,277.1
			L138.5,277.1L138.5,277.1c3.6-3.3,7.3-6.4,11.1-9.2c3.9-2.8,7.9-5.4,12.3-7.2c4.2-1.9,9.1-1.6,13.4,0.2c2.2,0.9,4.1,2.3,5.7,4
			c1.2,1.3,2.1,3,2.6,4.8c-1.3-1-2.8-1.8-4.3-2.3c-6.7-2.1-13.9-1.2-20.2,1.5c-1.6,0.7-3.1,1.5-4.5,2.4c-1.4,0.9-2.8,1.7-4.1,2.7
			c-2.7,1.9-5.3,3.9-7.7,6.1c-1.2,1.1-2.4,2.2-3.5,3.6c-0.8,1.1-1.6,2.3-2.1,3.6c-0.9-1-2.4-3.4-1.3-6.6
			C136.4,279.2,137.3,278,138.5,277.1 M140.3,295.9c0,0.1,0,0.2-0.1,0.2c-0.7-0.6-1.9-2-2.1-5c0.1-0.7,0.3-1.4,0.6-2.1
			c1.2-2.6,3.6-4.5,6.1-6.4c2.5-1.9,5.1-3.7,7.8-5.3c1.3-0.8,2.7-1.7,4-2.5c1.3-0.8,2.7-1.5,4-2c2.7-1.2,5.7-2,8.6-2.4
			c3-0.4,6-0.4,8.9,0.2c1.4,0.3,2.7,0.9,3.9,1.6c1.1,0.7,2.2,1.9,3.1,3c0.8,1.2,1.2,2.5,0.8,3.9c-0.3,0.9-0.9,1.8-1.6,2.6
			c-1.4-0.8-2.8-1.4-4.2-1.9c-3.3-1.1-6.6-1.6-10-2.1c-3.5-0.5-7.3,0-10.7,1.2c-1.7,0.7-3.3,1.5-4.8,2.6c-1.4,1-2.7,2-4,3
			c-2.6,2.1-5.2,4.3-7.4,7C142.2,292.7,141.1,294.1,140.3,295.9 M142.9,297.1c0.7-1.1,1.7-2.3,2.9-3.4c2.3-2.1,4.8-4.1,7.5-6
			c1.3-0.9,2.6-1.9,4-2.8c1.2-0.8,2.5-1.5,3.9-2c2.7-1.1,5.7-1.5,8.7-1.2c3.2,0.2,6.4,0.6,9.5,1.3c1.5,0.3,3,0.8,4.3,1.4
			c1.2,0.6,2.3,1.7,3.2,2.8c0.9,1.2,1.4,2.5,1.2,4c-0.2,1.1-0.8,2.1-1.5,3c-1.6-0.8-3.3-1.4-4.9-1.9c-1.8-0.6-3.7-1.1-5.6-1.5
			c-1.8-0.4-3.9-0.9-6-0.9c-4.2,0-8.5,1.7-11.5,4.3c-3,2.3-5.9,4.7-8.7,7.4c-1.4,1.3-2.7,2.8-4,4.4c-0.2,0.3-0.5,0.7-0.7,1
			c-1.7-1.2-2.6-3.3-2.8-3.8c-0.2-0.7-0.3-1.3-0.3-2C141.9,299.7,142.1,298.3,142.9,297.1 M210.4,326.5c-1.9,1.6-4.3,2.8-6.8,3.5
			c-1.3,0.4-2.6,0.5-3.9,0.6c-0.7,0-1.3,0-2-0.2c-0.4-0.1-0.8-0.2-1.1-0.3c4.8-2.5,9.4-5.4,13.6-8.7c-6.4,3.9-13.1,7.3-20.2,9.4
			c-7,2.1-14.5,2.9-21.4,1.4c-3.5-0.8-6.8-2.1-9.8-4c-3-1.9-5.7-4.2-7.7-7c-1.1-1.4-2-2.8-2.7-4.4c-0.7-1.5-1.3-3.2-1.2-4.4
			c0-0.4,0-0.4,0.1-0.7c0.1-0.3,0.3-0.6,0.5-1c0.4-0.7,0.9-1.4,1.4-2c1.1-1.3,2.3-2.6,3.6-3.9c2.6-2.5,5.4-4.9,8.3-7.2
			c2.7-2.3,5.7-3.4,9-3.6c1.6-0.1,3.2,0.2,5.1,0.6c1.8,0.4,3.6,0.8,5.3,1.3c3.3,1,7.2,2.3,8,4.6c0.4,1.1,0,2.6-0.9,3.9
			c-0.2,0.3-0.5,0.6-0.7,0.9c-0.2,0.3-0.6,0.5-0.7,0.6c-0.5,0.2-1.4,0.5-2.3,0.6c-3.5,0.6-7.3,0.6-11.1,0.9
			c-0.9,0.1-1.9,0.2-2.9,0.4c-0.9,0.1-2.1,0.4-2.9,1c-1.7,1.1-3.1,2.4-4.4,3.7c-2.7,2.6-5.2,5.4-7.6,8.3c2.7-2.6,5.5-5.1,8.4-7.4
			c1.4-1.2,2.9-2.3,4.5-3.1c0.7-0.4,1.4-0.5,2.4-0.6c0.9-0.1,1.8-0.1,2.7-0.1c3.7-0.1,7.4,0.1,11.3-0.3c1-0.1,2-0.2,3.2-0.7
			c0.7-0.4,1.1-0.7,1.5-1.1c0.4-0.4,0.8-0.8,1.1-1.2c1.3-1.7,2.3-4.1,1.6-6.7c-0.4-1.2-1.1-2.3-1.9-3.1c-0.8-0.8-1.8-1.4-2.7-1.9
			c-0.1,0-0.1-0.1-0.2-0.1c1-0.7,1.9-1.6,2.3-2.8c0.7-1.7,0.3-3.8-0.5-5.4c-0.4-0.8-0.9-1.6-1.5-2.2c-0.5-0.7-1.3-1.4-2.1-1.9
			c-0.1,0-0.1-0.1-0.2-0.1c0.9-0.6,1.7-1.3,2.3-2.3c0.9-1.6,0.7-3.8-0.1-5.4c-0.8-1.6-1.8-3-3.2-4.2c0,0-0.1-0.1-0.1-0.1
			c-0.2-2-0.9-3.9-2.1-5.5c-1.4-2-3.5-3.6-5.7-4.7c0.3-3.2,2-15.3,10.7-23.2c2.6-2.1,5.5-3.7,8.6-4.4c1.4-0.4,2.9-0.5,4.4-0.4
			c0.7,0.1,1.5,0.2,1.8,0.4c0.3,0.2,0.5,0.7,0.4,1.2c0,0.2-0.1,0.4-0.3,0.6c-0.2,0.3-0.5,0.7-0.7,1c-0.5,0.7-0.8,1.5-1.2,2.3
			c-0.6,1.6-1,3.2-1.2,4.8c-0.5,3.2-0.4,6.5-0.1,9.6c0.3,3.2,0.8,6.3,1.5,9.5l0.1,0.3l0.3,0.2c5.3,4.4,9.5,10,12.3,16.4
			c2.7,6.4,4.1,13.4,4,20.4c0.4-3.2,0.3-6.5,0-9.8c1.2-0.5,2.5-0.4,3.4,0.1c1.1,0.6,1.8,1.6,2.3,2.8c1.1,2.4,1.6,4.9,1.6,7.5
			c-0.1,5.1-1.7,10.3-4.1,15c-1.2,2.4-2.5,4.7-4.1,6.8C213.9,322.7,212.2,324.8,210.4,326.5"/>
		<path class="st5" d="M358.4,102.9c0,0,15.9,17.2,10.3,45.8l-4.2-2.5c0,0,4.2-20.5-7-37.3L358.4,102.9z"/>
		<path class="st6" d="M344.2,126.5c0,0-13.2-2.2-17.6-4s-7.1-11.5-3.9-17c3.2-5.6,12.2-5.8,16.4-4.6c4.2,1.1,10.3,2.2,10.3,2.2
			l10.3-3.7l-2.3,9.6c0,0,11.6,17.1,7,37.3l31.3,18.7c0,0,9.1,4.8,8.8,19.7h-52.7c0,0-10.8-8.9-16.4-8.6c-5.6,0.3-13.4,4-16.5,8.6
			h-3.2l-7.6-8.9c0,0,11-14.2,25.3-17.6c0,0,3.5-12.2,13.2-15.1C346.5,143,346.8,130.1,344.2,126.5"/>
		<path class="st7" d="M346.3,109.9c0-1.2-1-2.2-2.2-2.2c-1.2,0-2.2,1-2.2,2.2c0,1.2,1,2.2,2.2,2.2
			C345.3,112.1,346.3,111.1,346.3,109.9"/>
		<path class="st8" d="M360.6,128c0-1.3-1-2.3-2.3-2.3c-1.3,0-2.3,1-2.3,2.3c0,1.3,1,2.3,2.3,2.3C359.6,130.3,360.6,129.3,360.6,128
			"/>
		<path class="st9" d="M370.4,149.4l26.3,15.8c0,0,0,0.6-0.1,1c-1.9,6.2-9,9-14.7,5.9l-9.1-5c-1-0.5-1.9-1.2-2.6-2
			C367.9,162.4,364.5,156.4,370.4,149.4"/>
		<polyline class="st9" points="375.3,168.4 365.6,184.6 369.9,184.6 379.8,168.4 		"/>
		<path class="st10" d="M315.7,184.6l-9.2-14c-1.3-2-3.9-2.6-6-1.6c-2.4,1.2-3.2,4.3-1.8,6.5l5.7,9.1L315.7,184.6z"/>
		<path class="st11" d="M373.6,172.4c0,0.6-7.2,7.2-3,17.8c4.2,10.8,13.1,15.6,13.1,15.6l10.8-4.6c0,0-2.6-1-6-6.7
			c-3.3-5.8-0.8-9.3-0.8-9.3L373.6,172.4z"/>
		<path class="st11" d="M407.6,158c0.4,0.4,10.2-0.2,14.9,10.2c4.8,10.5,2.1,20.3,2.1,20.3l-10.8,4.6c0,0,1.2-2.6-0.7-9
			c-1.8-6.4-6.1-7-6.1-7L407.6,158z"/>
		<path class="st12" d="M364.6,103.1c-5.8,2.4-10.6,40.5,2.2,59.9c12.8,19.4,19.7,22.7,19.7,22.7l11.1-4.7l11.1-4.7
			c0,0,2.4-7.2-2.6-29.9C401.1,123.7,370.6,100.6,364.6,103.1"/>
		<path class="st13" d="M364.6,103.1c-0.7,0.3,3,1.4,2.3,2.8c10,3.2,29.2,23.1,33.6,42.8c5,22.7,2.6,29.9,2.6,29.9l5.6-2.4
			c0,0,2.4-7.2-2.6-29.9C401.1,123.7,370.6,100.6,364.6,103.1"/>
		<path class="st14" d="M359,136.4l33.5-14.2c-10.7-12.2-24.1-20.7-27.9-19.1C361,104.6,357.4,119.7,359,136.4"/>
		<path class="st15" d="M364.6,103.1c-0.6,0.2-1.1,0.8-1.7,1.7c5.5,1.2,16.4,8.9,25.5,19.1l4.1-1.7
			C381.8,110.1,368.4,101.5,364.6,103.1"/>
		<path class="st16" d="M387.1,135.4c1.6,3.7-0.2,8-3.9,9.6c-3.7,1.6-8-0.2-9.6-3.9c-1.6-3.7,0.2-8,3.9-9.6
			C381.2,129.9,385.5,131.7,387.1,135.4"/>
		<path class="st17" d="M385.5,135c1.5,3.5-0.2,7.5-3.6,9c-3.5,1.5-7.5-0.2-9-3.6c-1.5-3.5,0.2-7.5,3.6-9
			C380,129.9,384,131.5,385.5,135"/>
		<path class="st18" d="M383.8,135.8c1.1,2.5-0.1,5.5-2.7,6.6c-2.5,1.1-5.5-0.1-6.6-2.7c-1.1-2.5,0.1-5.5,2.7-6.6
			C379.8,132,382.7,133.2,383.8,135.8"/>
		<g class="st19">
			<g>
				<defs>
					<rect id="SVGID_5_" x="375.3" y="134.3" width="3.8" height="6"/>
				</defs>
				<clipPath id="SVGID_6_">
					<use xlink:href="#SVGID_5_"  style="overflow:visible;"/>
				</clipPath>
				<path class="st20" d="M375.6,136.7c-0.3,0.7-0.4,1.6-0.1,2.3s1,1.4,1.8,1.3c0.1,0,0.2,0,0.3-0.1c0.1-0.1,0.1-0.1,0.1-0.2
					c0.1-0.3,0.2-0.7,0.2-1.1c0-0.3-0.1-0.6-0.2-1c-0.1-0.9,0.4-1.7,1.1-2.3c0.2-0.2,0.4-0.4,0.4-0.7c0-0.9-1.4-0.7-1.9-0.4
					C376.5,135,375.9,135.9,375.6,136.7"/>
			</g>
		</g>
		<path class="st16" d="M394.1,151.9c1.6,3.7-0.2,8-3.9,9.6c-3.7,1.6-8-0.2-9.6-3.9c-1.6-3.7,0.2-8,3.9-9.6
			C388.2,146.5,392.5,148.2,394.1,151.9"/>
		<path class="st17" d="M392.5,151.5c1.5,3.5-0.2,7.5-3.6,9c-3.5,1.5-7.5-0.2-9-3.6c-1.5-3.5,0.2-7.5,3.6-9
			C387,146.4,391,148.1,392.5,151.5"/>
		<path class="st18" d="M390.8,152.3c1.1,2.5-0.1,5.5-2.7,6.6c-2.5,1.1-5.5-0.1-6.6-2.7c-1.1-2.5,0.1-5.5,2.7-6.6
			C386.8,148.5,389.7,149.7,390.8,152.3"/>
		<g class="st19">
			<g>
				<defs>
					<rect id="SVGID_7_" x="382.3" y="150.8" width="3.8" height="6"/>
				</defs>
				<clipPath id="SVGID_8_">
					<use xlink:href="#SVGID_7_"  style="overflow:visible;"/>
				</clipPath>
				<path class="st21" d="M382.6,153.2c-0.3,0.7-0.4,1.6-0.1,2.3s1,1.4,1.8,1.3c0.1,0,0.2,0,0.3-0.1c0.1-0.1,0.1-0.1,0.1-0.2
					c0.1-0.3,0.2-0.7,0.2-1.1c0-0.3-0.1-0.6-0.2-1c-0.1-0.9,0.4-1.7,1.1-2.3c0.2-0.2,0.4-0.4,0.4-0.7c0-0.9-1.4-0.7-1.9-0.4
					C383.5,151.5,382.9,152.4,382.6,153.2"/>
			</g>
		</g>
		
			<rect x="394.8" y="164.8" transform="matrix(0.9208 -0.39 0.39 0.9208 -39.2757 169.6597)" class="st11" width="6.6" height="33.4"/>
		<g class="st19">
			<g>
				<defs>
					<rect id="SVGID_9_" x="371.1" y="178.2" width="6.2" height="13.1"/>
				</defs>
				<clipPath id="SVGID_10_">
					<use xlink:href="#SVGID_9_"  style="overflow:visible;"/>
				</clipPath>
				<path class="st22" d="M373,189.3c0.7,1,1.7,1.9,3,2c0.3,0,0.6,0,0.8-0.2c0.4-0.3,0.5-0.9,0.5-1.4c-0.2-1.5-1.4-2.7-2.1-4.1
					c-0.6-1.2-0.8-2.5-0.5-3.8c0.2-1.1,0.9-3.2-0.8-3.6c-1.2-0.2-1.9,1.2-2.3,2.1C370.5,183.2,371.2,186.8,373,189.3"/>
			</g>
		</g>
		<g class="st19">
			<g>
				<defs>
					<rect id="SVGID_11_" x="391.7" y="168.7" width="8" height="16.3"/>
				</defs>
				<clipPath id="SVGID_12_">
					<use xlink:href="#SVGID_11_"  style="overflow:visible;"/>
				</clipPath>
				<path class="st23" d="M391.8,170.8c1.6,4.3,3.3,8.6,5.3,12.8c0.4,0.8,1.1,1.7,1.9,1.5c0.5-0.1,0.7-0.6,0.8-1.1
					c0-0.5-0.1-0.9-0.3-1.4c-1.7-4.7-4.9-8.9-6.2-13.8C393.3,169,391.3,169.5,391.8,170.8"/>
			</g>
		</g>
		<polygon class="st24" points="523.9,195 431.2,145.2 425.8,140.5 435.9,121.5 534.9,174.3 		"/>
		<path class="st25" d="M434.8,142.1l0.7,0.4l-2.6,4.8l1.4,0.8l2.6-4.8l0.7,0.4c0.4,0.2,0.9,0.1,1.1-0.3l6.9-13l-4.3-2.3l-6.9,13
			C434.2,141.4,434.4,141.9,434.8,142.1"/>
		<path class="st25" d="M445.2,147.7l0.7,0.4l-2.6,4.8l1.4,0.8l2.6-4.8l0.7,0.4c0.4,0.2,0.9,0.1,1.1-0.3l6.9-13l-4.3-2.3l-6.9,13
			C444.6,147,444.8,147.5,445.2,147.7"/>
		<path class="st25" d="M455.6,153.2l0.7,0.4l-2.6,4.8l1.4,0.8l2.6-4.8l0.7,0.4c0.4,0.2,0.9,0.1,1.1-0.3l6.9-13l-4.3-2.3l-6.9,13
			C455,152.5,455.2,153,455.6,153.2"/>
		<path class="st25" d="M466,158.8l0.7,0.4l-2.6,4.8l1.4,0.8l2.6-4.8l0.7,0.4c0.4,0.2,0.9,0.1,1.1-0.3l6.9-13l-4.3-2.3l-6.9,13
			C465.4,158.1,465.6,158.6,466,158.8"/>
		<path class="st25" d="M476.4,164.3l0.7,0.4l-2.6,4.8l1.4,0.8l2.6-4.8l0.7,0.4c0.4,0.2,0.9,0.1,1.1-0.3l6.9-13l-4.3-2.3l-6.9,13
			C475.9,163.6,476,164.1,476.4,164.3"/>
		<path class="st25" d="M486.8,169.9l0.7,0.4l-2.6,4.8l1.4,0.8l2.6-4.8l0.7,0.4c0.4,0.2,0.9,0.1,1.1-0.3l6.9-13l-4.3-2.3l-6.9,13
			C486.3,169.2,486.4,169.7,486.8,169.9"/>
		<path class="st25" d="M497.2,175.4l0.7,0.4l-2.6,4.8l1.4,0.8l2.6-4.8l0.7,0.4c0.4,0.2,0.9,0.1,1.1-0.3l6.9-13l-4.3-2.3l-6.9,13
			C496.7,174.7,496.8,175.2,497.2,175.4"/>
		<path class="st25" d="M507.6,181l0.7,0.4l-2.6,4.8l1.4,0.8l2.6-4.8l0.7,0.4c0.4,0.2,0.9,0.1,1.1-0.3l6.9-13l-4.3-2.3l-6.9,13
			C507.1,180.3,507.2,180.8,507.6,181"/>
		<path class="st25" d="M528.9,174.8l-4.3-2.3l-6.9,13c-0.2,0.4-0.1,0.9,0.3,1.1l0.7,0.4l-2.6,4.8l1.4,0.8l2.6-4.8l0.7,0.4
			c0.4,0.2,0.9,0.1,1.1-0.3L528.9,174.8z"/>
		<path class="st26" d="M532.4,164.1c-3.4-2.2-8-5.3-13.8-9.4c-15-10.8-22.9-35.4-22.9-35.4l0,0c-2.6-8.1-8.3-15.3-16.4-19.7
			l-1.6-0.8c-13.3-7.1-29.8-2.1-36.9,11.2l-7.4,13.9l0,0l-7.2,13.4c-1.6,3-0.5,6.8,2.6,8.4l91.1,48.7c3,1.6,6.8,0.5,8.4-2.6
			l7.2-13.5l0.4-0.7C538.4,172.9,536.9,167,532.4,164.1 M526.2,190.7c-1,1.9-3.3,2.6-5.1,1.6L430,143.5c-1.9-1-2.6-3.3-1.6-5.1
			l7.2-13.4l53.6,28.6l44.3,23.6L526.2,190.7z"/>
		<path class="st27" d="M445.2,106.9c1.3-1.7,2.9-3.2,4.6-4.5c1.7-1.3,3.6-2.4,5.6-3.3c2-0.8,4.1-1.4,6.3-1.7
			c1.1-0.2,2.2-0.2,3.3-0.2c1.1,0,2.2,0.1,3.3,0.3c2.1,0.3,4.3,0.7,6.4,1.4c2.1,0.7,4.1,1.6,6,2.9c0.5,0.3,0.9,0.7,1.4,1
			c0.4,0.4,0.8,0.8,1.2,1.1c0.8,0.8,1.5,1.5,2.3,2.4c1.4,1.6,2.8,3.4,4,5.2c1.2,1.8,2.2,3.7,3.2,5.7c0.9,2,1.7,3.9,2.4,6
			c1.2,3.9,2.8,7.8,4.6,11.6c0.9,1.9,1.9,3.7,2.9,5.5c1,1.8,2.2,3.6,3.4,5.3c2.4,3.4,5.2,6.5,8.5,9.2c-3.7-2.1-6.9-5.1-9.6-8.3
			c-2.8-3.3-5.1-6.9-7.2-10.6c-1-1.9-2-3.8-2.8-5.8c-0.9-2-1.7-3.9-2.4-6c-0.7-1.9-1.5-3.8-2.4-5.6c-0.9-1.9-1.9-3.6-3-5.4
			c-1.1-1.7-2.3-3.4-3.7-4.9c-0.7-0.8-1.4-1.5-2.1-2.2c-0.4-0.4-0.7-0.7-1.1-1c-0.4-0.3-0.7-0.6-1.1-0.9c-1.6-1.2-3.4-2.1-5.3-2.8
			c-1.9-0.7-3.9-1.2-5.9-1.6c-4-0.8-8.1-0.6-12,0.7c-2,0.6-3.8,1.5-5.6,2.6c-0.9,0.5-1.8,1.1-2.6,1.8
			C446.7,105.5,445.9,106.2,445.2,106.9"/>
		<path class="st27" d="M463.1,117.6c1.9-3.6,0.6-8-3-9.9c-3.6-1.9-8-0.6-9.9,3c-1.9,3.6-0.6,8,3,9.9
			C456.7,122.5,461.2,121.2,463.1,117.6"/>
		<path class="st28" d="M461.2,116.6c1.3-2.5,0.4-5.7-2.1-7c-2.5-1.3-5.7-0.4-7,2.1c-1.3,2.5-0.4,5.7,2.1,7
			C456.7,120.1,459.8,119.1,461.2,116.6"/>
		<path class="st24" d="M457,111.4c0.3-0.5,0.1-1.2-0.4-1.4c-0.5-0.3-1.2-0.1-1.4,0.4c-0.3,0.5-0.1,1.2,0.4,1.4
			C456.1,112.1,456.7,111.9,457,111.4"/>
		<path class="st27" d="M476.1,140.5c0.8-1.5,0.2-3.3-1.3-4.1c-1.5-0.8-3.3-0.2-4.1,1.3c-0.8,1.5-0.2,3.3,1.3,4.1
			C473.4,142.6,475.3,142,476.1,140.5"/>
		<path class="st29" d="M475.3,140.1c0.6-1.1,0.2-2.4-0.9-2.9c-1.1-0.6-2.4-0.2-2.9,0.9c-0.6,1.1-0.2,2.4,0.9,2.9
			C473.4,141.5,474.7,141.1,475.3,140.1"/>
		<path class="st24" d="M473.6,137.9c0.1-0.2,0-0.5-0.2-0.6c-0.2-0.1-0.5,0-0.6,0.2c-0.1,0.2,0,0.5,0.2,0.6
			C473.2,138.2,473.4,138.1,473.6,137.9"/>
		<path class="st27" d="M486.2,145.9c0.8-1.5,0.2-3.3-1.3-4.1c-1.5-0.8-3.3-0.2-4.1,1.3c-0.8,1.5-0.2,3.3,1.3,4.1
			C483.6,148,485.4,147.4,486.2,145.9"/>
		<path class="st30" d="M485.4,145.5c0.6-1.1,0.2-2.4-0.9-2.9c-1.1-0.6-2.4-0.2-2.9,0.9c-0.6,1.1-0.2,2.4,0.9,2.9
			C483.5,146.9,484.9,146.5,485.4,145.5"/>
		<path class="st24" d="M483.7,143.3c0.1-0.2,0-0.5-0.2-0.6c-0.2-0.1-0.5,0-0.6,0.2c-0.1,0.2,0,0.5,0.2,0.6
			C483.3,143.6,483.6,143.5,483.7,143.3"/>
		<path class="st27" d="M496.3,151.3c0.8-1.5,0.2-3.3-1.3-4.1c-1.5-0.8-3.3-0.2-4.1,1.3c-0.8,1.5-0.2,3.3,1.3,4.1
			C493.7,153.4,495.5,152.8,496.3,151.3"/>
		<path class="st31" d="M495.5,150.9c0.6-1.1,0.2-2.4-0.9-2.9c-1.1-0.6-2.4-0.2-2.9,0.9c-0.6,1.1-0.2,2.4,0.9,2.9
			C493.7,152.3,495,151.9,495.5,150.9"/>
		<path class="st24" d="M493.8,148.7c0.1-0.2,0-0.5-0.2-0.6c-0.2-0.1-0.5,0-0.6,0.2c-0.1,0.2,0,0.5,0.2,0.6
			C493.4,149,493.7,148.9,493.8,148.7"/>
		<path class="st27" d="M506.4,156.7c0.8-1.5,0.2-3.3-1.3-4.1c-1.5-0.8-3.3-0.2-4.1,1.3c-0.8,1.5-0.2,3.3,1.3,4.1
			C503.8,158.7,505.6,158.2,506.4,156.7"/>
		<path class="st28" d="M505.6,156.3c0.6-1.1,0.2-2.4-0.9-2.9c-1.1-0.6-2.4-0.2-2.9,0.9c-0.6,1.1-0.2,2.4,0.9,2.9
			C503.8,157.7,505.1,157.3,505.6,156.3"/>
		<path class="st24" d="M503.9,154.1c0.1-0.2,0-0.5-0.2-0.6c-0.2-0.1-0.5,0-0.6,0.2c-0.1,0.2,0,0.5,0.2,0.6
			C503.5,154.4,503.8,154.3,503.9,154.1"/>
		<path class="st32" d="M371.9,160.6l119.3,39.7c1.3,0.4,2.8-0.3,3.2-1.6l1.5-4.6c0.4-1.3-0.3-2.8-1.6-3.2L375,151.1
			c-1.3-0.4-2.8,0.3-3.2,1.6l-1.5,4.6C369.8,158.7,370.5,160.2,371.9,160.6"/>
		<path class="st33" d="M378.4,149.6l5.4,1.8l2.9-8.8l-5.4-1.8c-1.2-0.4-2.6,0.3-3,1.5l-1.4,4.3
			C376.5,147.9,377.2,149.2,378.4,149.6"/>
		<path class="st32" d="M489.8,188.6l7.3,2.4c1.4,0.5,2.9-0.3,3.3-1.7l1.6-4.8c0.5-1.4-0.3-2.9-1.7-3.3l-7.3-2.4L489.8,188.6z"/>
		<path class="st34" d="M377.6,153.7L377.6,153.7l116.6,38.8c3.6-10.9,0-22.5-8.3-29.5c0.7-18.2-10.6-35.5-28.7-41.5
			c-17.5-5.8-36.1,0.5-46.7,14.4C396.6,132.3,382.2,140,377.6,153.7 M451.6,126l-7,21.2l-28-9.3C424.9,128,438.4,123.1,451.6,126
			 M476.9,157.9l-27-9l7.1-21.4c13.5,5.2,22.1,17.8,22.9,31.5C479,158.7,478,158.3,476.9,157.9"/>
		<polygon class="st32" points="486.7,197.9 482.4,200.3 447.4,188.6 444.7,183.9 445.8,180.8 488.9,194.4 		"/>
		<polygon class="st32" points="422.8,176.7 418.6,179.1 383.6,167.4 380.9,162.7 381.9,159.6 425.1,173.2 		"/>
		<path class="st35" d="M451.3,181.9c2.8-8.4,11.9-13,20.3-10.2c8.4,2.8,13,11.9,10.2,20.3c-2.8,8.4-11.9,13-20.3,10.2
			C453,199.4,448.5,190.3,451.3,181.9"/>
		<path class="st36" d="M460.8,185c1.1-3.2,4.5-4.9,7.7-3.9c3.2,1.1,4.9,4.5,3.9,7.7c-1.1,3.2-4.5,4.9-7.7,3.9
			C461.4,191.7,459.7,188.2,460.8,185"/>
		<path class="st35" d="M388.3,161c2.8-8.4,11.9-13,20.3-10.2c8.4,2.8,13,11.9,10.2,20.3c-2.8,8.4-11.9,13-20.3,10.2
			C390.1,178.5,385.5,169.4,388.3,161"/>
		<path class="st36" d="M397.8,164.1c1.1-3.2,4.5-4.9,7.7-3.9c3.2,1.1,4.9,4.5,3.9,7.7c-1.1,3.2-4.5,4.9-7.7,3.9
			C398.5,170.8,396.8,167.3,397.8,164.1"/>
		<path class="st37" d="M280,180.4l-9.4,11.9c0,0-2.9,5.7,2.3,8.2c5.2,2.5,6.3-1.5,6.3-1.5s2.2,1.3,2.8,0c0.6-1.3-0.5-3.8-0.5-3.8
			l8.4-8.3L280,180.4z"/>
		<path class="st38" d="M300,164.1c0,0-16,2.7-21.1,17.3l7.6,8l6.7-5.6l1.3,5l47.7-6.6l-1.4-3c-4.1-8.9-12.4-15.4-22.1-16.8
			c-2.1-0.3-4.3-0.3-6.5,0L300,164.1z"/>
		<path class="st39" d="M497.1,80.8c-7.7-12.2-20.9-19.5-35.3-19.5h-63.6h-63.6c-14.4,0-27.6,7.3-35.3,19.5l-52.8,116.5l11.3,7.1
			l52.8-116.5c5.2-8.3,14.2-13.2,23.9-13.2h63.6h63.6c9.8,0,18.7,4.9,23.9,13.2l48.4,111.2l11.3-7.1L497.1,80.8z"/>
		<path class="st1" d="M251.1,197.8c-0.1,0-0.3,0-0.4-0.1c-0.5-0.2-0.7-0.8-0.5-1.3l50.2-109c3.1-6.7,7.6-12.4,13-16.4
			c5.9-4.3,12.3-6.7,19.2-7.1l124.4,0c0.6,0,1,0.5,1,1c0,0.6-0.5,1-1,1H332.7c-6.4,0.4-12.5,2.6-18,6.7c-5.1,3.8-9.4,9.2-12.4,15.6
			l-50.2,109C251.9,197.6,251.5,197.8,251.1,197.8"/>
		<path class="st40" d="M274,130.5c0,0-7.4,0.8-5.9,11.2c0,0-6,1.7-4.3,10.8c0,0-5.7,3.3-4.8,10.8c0,0-8.3,0.3-6.3,8l2.7-1.5
			l0.9,3.6l3.1-2.1l2.3,3.2l2.3-2.4l1.3,2.4c0,0,5.2-2.8,0.6-9.4c0,0,6.9-2.3,5.6-11.5c0,0,5.7-3.3,4.6-10.2L274,130.5z"/>
		<path class="st40" d="M325.1,124.5c0,0,7.2-1.8,9.4,8.5c0,0,6.3-0.4,7.7,8.7c0,0,6.5,1.2,8.2,8.5c0,0,7.9-2.5,8.6,5.4l-3.1-0.5
			l0.4,3.7l-3.6-0.9l-1.1,3.8l-3-1.5l-0.4,2.7c0,0-5.9-0.9-3.7-8.7c0,0-7.3,0.2-9.2-8.9c0,0-6.5-1.2-7.8-8.1L325.1,124.5z"/>
		<path class="st37" d="M275.1,137.5c0,0,0.4,13.5,7.9,19.4c7.5,5.9,16.3,7.2,28.2,3.3c12-3.9,18.2-13.7,17.2-21.6l-0.6-9.9
			l-19.2-11.4l-13.5-2.6c0,0-4,1.1-5.2,2.4c-1.3,1.3-8,8.4-8,8.4"/>
		<path class="st40" d="M275.1,137.5c0,0,21.6-11.2,22.8-20.7c0,0,13.9,13.3,29.9,11.8c0,0-1.6-21.1-30.3-20.7
			c0,0-19.7,2.5-23.6,22.5L275.1,137.5z"/>
		<path class="st41" d="M311.3,109.2c1.7-0.8,3.1-2,3.5-3.8c0.6-2.7-0.4-5.5-2.7-7.5c-2.2-1.9-5-2.5-7.1-1.6c-3,1.3-6.3,6.8-8,10.1
			c-1.7-3.2-5-8.8-8-10.1c-2.1-0.9-4.9-0.3-7.1,1.6c-2.3,2-3.4,4.9-2.7,7.5c0.8,3.1,4.4,4.5,7.8,5.1c-9.1,5.8-12.5,16.8-12.5,16.8
			s19-28.7,50.1-7.1C324.6,120.2,321,113,311.3,109.2 M306.1,99c1.1-0.5,2.8,0,4.1,1.1c1.5,1.3,2.2,3,1.8,4.6
			c-0.4,1.6-3.1,2.5-5.9,3c-1.9-0.4-3.9-0.6-6.1-0.7C301.8,103.7,304.4,99.8,306.1,99 M281.9,104.8c-0.4-1.6,0.3-3.3,1.8-4.6
			c1.3-1.1,3-1.6,4.1-1.1c1.8,0.8,4.5,5,6.4,8.5c-0.7,0.2-1.4,0.3-2.1,0.6C288.7,108,282.5,107.2,281.9,104.8"/>
		<path class="st37" d="M281.6,142.1c0-3-2.4-5.4-5.4-5.4c-3,0-5.4,2.4-5.4,5.4c0,3,2.4,5.4,5.4,5.4
			C279.1,147.6,281.6,145.1,281.6,142.1"/>
		<path class="st37" d="M331.9,134c0-3-2.4-5.4-5.4-5.4c-3,0-5.4,2.4-5.4,5.4c0,3,2.4,5.4,5.4,5.4C329.5,139.5,331.9,137,331.9,134"
			/>
		<path class="st37" d="M299.5,160.8v4.6c0,0,8.1,6,12.6-2.9l-1.9-5.9"/>
		<path class="st42" d="M293.2,141.1c0-2-1.6-3.6-3.6-3.6c-2,0-3.6,1.6-3.6,3.6c0,2,1.6,3.6,3.6,3.6
			C291.6,144.6,293.2,143.1,293.2,141.1"/>
		<path class="st1" d="M293.2,138.5c0-0.9-0.7-1.6-1.6-1.6s-1.6,0.7-1.6,1.6c0,0.9,0.7,1.6,1.6,1.6S293.2,139.4,293.2,138.5"/>
		<path class="st42" d="M317.1,138.5c0-2-1.6-3.6-3.6-3.6c-2,0-3.6,1.6-3.6,3.6c0,2,1.6,3.6,3.6,3.6
			C315.5,142.1,317.1,140.5,317.1,138.5"/>
		<path class="st42" d="M296.8,152.5c4.5,2.6,9.4,1.7,13.5-0.9c0.6-0.4,1.2-0.8,1.8-1.1c-0.4,0.6-0.9,1.1-1.4,1.6
			C307.1,155.9,300.3,156.8,296.8,152.5"/>
		<path class="st1" d="M312.1,137c0-0.9-0.7-1.6-1.6-1.6s-1.6,0.7-1.6,1.6c0,0.9,0.7,1.6,1.6,1.6S312.1,137.9,312.1,137"/>
		<path class="st4" d="M522.1,313.3v-74.9c0-21.7-22.6,4.3-44.4,4.3l-164.4-26.9c-21.7,0-40.1,1-40.1,22.7V277
			c-9.5,10.5-15.8,22.6-18.5,35.8c-4.5,22.7,2.2,46.4,18.5,67.5v28.2c0,21.7,17.7,39.4,39.4,39.4h80.2h89.9
			c21.7,0,39.4-17.7,39.4-39.4v-15.3c4.9-7.8,8.3-16.1,10.1-24.8C535.8,350.1,532.3,331.1,522.1,313.3 M526.2,367.2
			c-1.8,8.7-5.3,16.8-10.2,24.2v17.2c0,18.4-14.9,33.3-33.3,33.3H312.6c-18.4,0-33.3-14.9-33.3-33.3v-27c6.7,7,14.7,13.5,23.7,19.3
			c-31.3-23.5-48.5-55.6-42.3-86.9c3.7-18.4,15.1-34,31.5-45.6c-4.7,3.1-9,6.4-12.9,10v-39.9c0-18.4,14.9-33.3,33.3-33.3h170.1
			c18.4,0,33.3,14.9,33.3,33.3v75.3"/>
		<path class="st43" d="M541,183.9H253.1c-3.4,0-6.2,2.8-6.2,6.2v16.6c0,3.4,2.8,6.2,6.2,6.2h20.9l5.4,40v25.6c1-0.9,2-1.8,3.1-2.7
			l0.1,0.7c-11.2,10.4-18.8,23.2-21.7,37.7c-6.3,31.3,10.9,63.4,42.3,86.9c-9-5.8-17-12.2-23.7-19.3v27c0,18.4,14.9,33.3,33.3,33.3
			h170.1c18.4,0,33.3-14.9,33.3-33.3v-17.2c4.9-7.3,8.4-15.4,10.2-24.2c3.6-16.3-1.4-32-1.4-32c-1.9-8.4-8.4-19.4-8.4-19.4l-0.4-2
			v-70.5l4.1-30.5H541c3.4,0,6.2-2.8,6.2-6.2V190C547.1,186.6,544.4,183.9,541,183.9z"/>
		<path class="st3" d="M541,183.9H253.1c-3.4,0-6.2,2.8-6.2,6.2v16.6c0,3.4,2.8,6.2,6.2,6.2h20.9l5.4,40v25.6c1-0.9,2-1.8,3.1-2.7
			l0.1,0.7c-11.2,10.4-18.8,23.2-21.7,37.7c-6.3,31.3,10.9,63.4,42.3,86.9c-9-5.8-17-12.2-23.7-19.3v27c0,18.4,14.9,33.3,33.3,33.3
			h170.1c18.4,0,33.3-14.9,33.3-33.3v-17.2c4.9-7.3,8.4-15.4,10.2-24.2c3.6-16.3-1.4-32-1.4-32c-1.9-8.4-8.4-19.4-8.4-19.4l-0.4-2
			v-70.5l4.1-30.5H541c3.4,0,6.2-2.8,6.2-6.2V190C547.1,186.6,544.4,183.9,541,183.9"/>
		<path class="st1" d="M541.1,206.8L541.1,206.8c-0.9,0-1.7-0.8-1.7-1.7v-8.3c0-3.5-2.8-6.3-6.3-6.3H259.4c-0.9,0-1.7-0.8-1.7-1.7
			s0.8-1.7,1.7-1.7h273.7c5.3,0,9.7,4.3,9.7,9.7v8.3C542.8,206.1,542,206.8,541.1,206.8"/>
		<polygon class="st44" points="517.9,228.8 273.9,228.8 273.9,212.7 520.1,212.7 		"/>
		<path class="st45" d="M375.1,235.8c-3.2-2.5-6.2-4.6-9.3-6.2c-3.1-1.6-6.3-2.7-9.6-3c-3.3-0.3-6.7-0.2-10.2,0.5
			c-1.8,0.2-3.5,0.9-5.4,1.2c-1.8,0.5-3.6,1.1-5.7,1.5c1.3-1.6,2.8-2.9,4.3-4.3c0.8-0.6,1.7-1.1,2.5-1.7c0.9-0.5,1.7-1.1,2.7-1.5
			c3.8-1.7,8.1-2.5,12.5-2c4.4,0.4,8.5,2.5,11.7,5.2C371.8,228.2,374.2,231.8,375.1,235.8"/>
		<path class="st1" d="M358.5,247.1c0-3.2-2.6-5.7-5.7-5.7c-3.2,0-5.7,2.6-5.7,5.7c0,3.2,2.6,5.7,5.7,5.7
			C355.9,252.8,358.5,250.2,358.5,247.1"/>
		<path class="st46" d="M357.3,247.1c0-3.2-2.6-5.7-5.7-5.7c-3.2,0-5.7,2.6-5.7,5.7c0,3.2,2.6,5.7,5.7,5.7
			C354.8,252.8,357.3,250.2,357.3,247.1"/>
		<path class="st1" d="M387.3,247.1c0-3.2-2.6-5.7-5.7-5.7c-3.2,0-5.7,2.6-5.7,5.7c0,3.2,2.6,5.7,5.7,5.7
			C384.7,252.8,387.3,250.2,387.3,247.1"/>
		<path class="st47" d="M386.1,247.1c0-3.2-2.6-5.7-5.7-5.7c-3.2,0-5.7,2.6-5.7,5.7c0,3.2,2.6,5.7,5.7,5.7
			C383.5,252.8,386.1,250.2,386.1,247.1"/>
		<path class="st1" d="M416.1,247.1c0-3.2-2.6-5.7-5.7-5.7c-3.2,0-5.7,2.6-5.7,5.7c0,3.2,2.6,5.7,5.7,5.7
			C413.5,252.8,416.1,250.2,416.1,247.1"/>
		<path class="st47" d="M414.9,247.1c0-3.2-2.6-5.7-5.7-5.7c-3.2,0-5.7,2.6-5.7,5.7c0,3.2,2.6,5.7,5.7,5.7
			C412.3,252.8,414.9,250.2,414.9,247.1"/>
		<path class="st1" d="M444.9,247.1c0-3.2-2.6-5.7-5.7-5.7c-3.2,0-5.7,2.6-5.7,5.7c0,3.2,2.6,5.7,5.7,5.7
			C442.3,252.8,444.9,250.2,444.9,247.1"/>
		<path class="st46" d="M443.7,247.1c0-3.2-2.6-5.7-5.7-5.7c-3.2,0-5.7,2.6-5.7,5.7c0,3.2,2.6,5.7,5.7,5.7
			C441.1,252.8,443.7,250.2,443.7,247.1"/>
		<path class="st1" d="M358.5,298.5c0-3.2-2.6-5.7-5.7-5.7c-3.2,0-5.7,2.6-5.7,5.7c0,3.2,2.6,5.7,5.7,5.7
			C355.9,304.3,358.5,301.7,358.5,298.5"/>
		<path class="st47" d="M357.3,298.5c0-3.2-2.6-5.7-5.7-5.7c-3.2,0-5.7,2.6-5.7,5.7c0,3.2,2.6,5.7,5.7,5.7
			C354.8,304.3,357.3,301.7,357.3,298.5"/>
		<path class="st1" d="M332.4,298.5c0-3.2-2.6-5.7-5.7-5.7c-3.2,0-5.7,2.6-5.7,5.7c0,3.2,2.6,5.7,5.7,5.7
			C329.8,304.3,332.4,301.7,332.4,298.5"/>
		<path class="st47" d="M331.2,298.5c0-3.2-2.6-5.7-5.7-5.7c-3.2,0-5.7,2.6-5.7,5.7c0,3.2,2.6,5.7,5.7,5.7
			C328.7,304.3,331.2,301.7,331.2,298.5"/>
		<path class="st1" d="M444.9,298.5c0-3.2-2.6-5.7-5.7-5.7c-3.2,0-5.7,2.6-5.7,5.7c0,3.2,2.6,5.7,5.7,5.7
			C442.3,304.3,444.9,301.7,444.9,298.5"/>
		<path class="st47" d="M443.7,298.5c0-3.2-2.6-5.7-5.7-5.7c-3.2,0-5.7,2.6-5.7,5.7c0,3.2,2.6,5.7,5.7,5.7
			C441.1,304.3,443.7,301.7,443.7,298.5"/>
		<path class="st1" d="M473.6,298.5c0-3.2-2.6-5.7-5.7-5.7c-3.2,0-5.7,2.6-5.7,5.7c0,3.2,2.6,5.7,5.7,5.7
			C471.1,304.3,473.6,301.7,473.6,298.5"/>
		<path class="st47" d="M472.5,298.5c0-3.2-2.6-5.7-5.7-5.7c-3.2,0-5.7,2.6-5.7,5.7c0,3.2,2.6,5.7,5.7,5.7
			C469.9,304.3,472.5,301.7,472.5,298.5"/>
		<path class="st1" d="M358.5,320.3c0-3.2-2.6-5.7-5.7-5.7c-3.2,0-5.7,2.6-5.7,5.7c0,3.2,2.6,5.7,5.7,5.7
			C355.9,326,358.5,323.5,358.5,320.3"/>
		<path class="st47" d="M357.3,320.3c0-3.2-2.6-5.7-5.7-5.7c-3.2,0-5.7,2.6-5.7,5.7c0,3.2,2.6,5.7,5.7,5.7
			C354.8,326,357.3,323.5,357.3,320.3"/>
		<path class="st1" d="M332.4,320.3c0-3.2-2.6-5.7-5.7-5.7c-3.2,0-5.7,2.6-5.7,5.7c0,3.2,2.6,5.7,5.7,5.7
			C329.8,326,332.4,323.5,332.4,320.3"/>
		<path class="st47" d="M331.2,320.3c0-3.2-2.6-5.7-5.7-5.7c-3.2,0-5.7,2.6-5.7,5.7c0,3.2,2.6,5.7,5.7,5.7
			C328.7,326,331.2,323.5,331.2,320.3"/>
		<path class="st1" d="M453.7,320.3c0-3.2-2.6-5.7-5.7-5.7c-3.2,0-5.7,2.6-5.7,5.7c0,3.2,2.6,5.7,5.7,5.7
			C451.2,326,453.7,323.5,453.7,320.3"/>
		<path class="st47" d="M452.5,320.3c0-3.2-2.6-5.7-5.7-5.7c-3.2,0-5.7,2.6-5.7,5.7c0,3.2,2.6,5.7,5.7,5.7
			C450,326,452.5,323.5,452.5,320.3"/>
		<path class="st1" d="M473.6,320.3c0-3.2-2.6-5.7-5.7-5.7c-3.2,0-5.7,2.6-5.7,5.7c0,3.2,2.6,5.7,5.7,5.7
			C471.1,326,473.6,323.5,473.6,320.3"/>
		<path class="st47" d="M472.5,320.3c0-3.2-2.6-5.7-5.7-5.7c-3.2,0-5.7,2.6-5.7,5.7c0,3.2,2.6,5.7,5.7,5.7
			C469.9,326,472.5,323.5,472.5,320.3"/>
		<path class="st1" d="M387.3,274.4c0-3.2-2.6-5.7-5.7-5.7c-3.2,0-5.7,2.6-5.7,5.7c0,3.2,2.6,5.7,5.7,5.7
			C384.7,280.1,387.3,277.5,387.3,274.4"/>
		<path class="st47" d="M386.1,274.4c0-3.2-2.6-5.7-5.7-5.7c-3.2,0-5.7,2.6-5.7,5.7c0,3.2,2.6,5.7,5.7,5.7
			C383.5,280.1,386.1,277.5,386.1,274.4"/>
		<path class="st1" d="M416.1,274.4c0-3.2-2.6-5.7-5.7-5.7c-3.2,0-5.7,2.6-5.7,5.7c0,3.2,2.6,5.7,5.7,5.7
			C413.5,280.1,416.1,277.5,416.1,274.4"/>
		<path class="st47" d="M414.9,274.4c0-3.2-2.6-5.7-5.7-5.7c-3.2,0-5.7,2.6-5.7,5.7c0,3.2,2.6,5.7,5.7,5.7
			C412.3,280.1,414.9,277.5,414.9,274.4"/>
		<path class="st48" d="M460.5,259.9c0,14.8-8.2,26.9-18.3,26.9c-10.1,0-18.3-12-18.3-26.9c0-14.8,8.2-26.9,18.3-26.9
			C452.3,233,460.5,245,460.5,259.9"/>
		<path class="st48" d="M366.9,259.9c0,14.8-8.2,26.9-18.3,26.9c-10.1,0-18.3-12-18.3-26.9c0-14.8,8.2-26.9,18.3-26.9
			C358.7,233,366.9,245,366.9,259.9"/>
		<path class="st1" d="M418.1,258.1c0,16.5,8.4,24.7,19.3,25.5c12.6,0.8,21.5-9.4,20.1-25.5c-1.3-14.9-8.8-24.8-19.7-24.8
			S418.1,244.4,418.1,258.1"/>
		<path class="st49" d="M423,257.7c0,10.8,6.4,19.6,14.4,19.6c8,0,14.4-8.8,14.4-19.6c0-10.8-6.4-19.6-14.4-19.6
			C429.5,238.1,423,246.9,423,257.7"/>
		<path class="st50" d="M426.8,257.7c0,8,4.8,14.5,10.6,14.5c5.9,0,10.6-6.5,10.6-14.5c0-8-4.8-14.5-10.6-14.5
			C431.5,243.2,426.8,249.7,426.8,257.7"/>
		<path class="st51" d="M437.4,284.3c-12.5-0.8-20-10.7-20-26.3c0-14.1,9.2-25.6,20.5-25.6c11.2,0,19.2,10,20.5,25.5
			c0.7,8.7-1.5,16.2-6.2,21c-3.5,3.5-8.2,5.4-13.3,5.4C438.4,284.4,437.9,284.4,437.4,284.3 M419,258.1c0,14.7,6.9,23.9,18.5,24.7
			c5.4,0.4,10-1.3,13.5-4.9c4.4-4.5,6.4-11.5,5.7-19.7c-1.2-14.6-8.7-24-18.9-24C427.4,234.1,419,244.8,419,258.1"/>
		<path class="st51" d="M422.1,257.7c0-11.3,6.9-20.5,15.3-20.5c8.4,0,15.3,9.2,15.3,20.5c0,11.3-6.9,20.5-15.3,20.5
			C429,278.2,422.1,269,422.1,257.7 M423.9,257.7c0,10.3,6.1,18.7,13.5,18.7c7.4,0,13.5-8.4,13.5-18.7s-6.1-18.7-13.5-18.7
			C430,239,423.9,247.4,423.9,257.7"/>
		<path class="st52" d="M429.4,256.7c0,6.4,3.7,11.6,8.3,11.6c4.6,0,8.3-5.2,8.3-11.6c0-6.4-3.7-11.6-8.3-11.6
			C433.1,245.2,429.4,250.4,429.4,256.7"/>
		<path class="st1" d="M441.3,265.3c0-2.1,1.7-3.8,3.8-3.8c2.1,0,3.8,1.7,3.8,3.8c0,2.1-1.7,3.8-3.8,3.8
			C442.9,269.1,441.3,267.4,441.3,265.3"/>
		<path class="st1" d="M420.6,249.8c0-3.8,3.1-6.9,6.9-6.9c3.8,0,6.9,3.1,6.9,6.9c0,3.8-3.1,6.9-6.9,6.9
			C423.7,256.7,420.6,253.6,420.6,249.8"/>
		<path class="st1" d="M373.5,258.1c0,16.5-8.4,24.7-19.3,25.5c-12.6,0.8-21.5-9.4-20.1-25.5c1.3-14.9,8.8-24.8,19.7-24.8
			S373.5,244.4,373.5,258.1"/>
		<path class="st49" d="M368.6,257.7c0,10.8-6.4,19.6-14.4,19.6c-8,0-14.4-8.8-14.4-19.6c0-10.8,6.4-19.6,14.4-19.6
			C362.1,238.1,368.6,246.9,368.6,257.7"/>
		<path class="st50" d="M364.8,257.7c0,8-4.8,14.5-10.6,14.5c-5.9,0-10.6-6.5-10.6-14.5c0-8,4.8-14.5,10.6-14.5
			C360.1,243.2,364.8,249.7,364.8,257.7"/>
		<path class="st51" d="M352.8,284.4c-5.2,0-9.9-1.9-13.3-5.4c-4.7-4.8-6.9-12.3-6.2-21c1.3-15.5,9.4-25.5,20.5-25.5
			c11.3,0,20.5,11.5,20.5,25.6c0,15.6-7.5,25.4-20,26.3C353.7,284.4,353.2,284.4,352.8,284.4 M353.7,234.1c-10.3,0-17.7,9.4-18.9,24
			c-0.7,8.2,1.3,15.2,5.7,19.7c3.5,3.6,8.2,5.3,13.5,4.9c11.6-0.8,18.5-10,18.5-24.7C372.6,244.8,364.2,234.1,353.7,234.1"/>
		<path class="st51" d="M354.2,278.2c-8.4,0-15.3-9.2-15.3-20.5c0-11.3,6.9-20.5,15.3-20.5c8.4,0,15.3,9.2,15.3,20.5
			C369.5,269,362.6,278.2,354.2,278.2 M354.2,239c-7.4,0-13.5,8.4-13.5,18.7c0,10.3,6.1,18.7,13.5,18.7c7.4,0,13.5-8.4,13.5-18.7
			C367.7,247.4,361.6,239,354.2,239"/>
		<path class="st52" d="M362.2,256.7c0,6.4-3.7,11.6-8.3,11.6c-4.6,0-8.3-5.2-8.3-11.6c0-6.4,3.7-11.6,8.3-11.6
			C358.5,245.2,362.2,250.4,362.2,256.7"/>
		<path class="st1" d="M350.3,265.3c0-2.1-1.7-3.8-3.8-3.8c-2.1,0-3.8,1.7-3.8,3.8c0,2.1,1.7,3.8,3.8,3.8
			C348.7,269.1,350.3,267.4,350.3,265.3"/>
		<path class="st1" d="M371,249.8c0-3.8-3.1-6.9-6.9-6.9c-3.8,0-6.9,3.1-6.9,6.9c0,3.8,3.1,6.9,6.9,6.9
			C367.9,256.7,371,253.6,371,249.8"/>
		<path class="st45" d="M415.4,235.8c0.9-4,3.3-7.5,6.5-10.3c3.2-2.7,7.3-4.7,11.7-5.2c4.3-0.4,8.7,0.3,12.5,2
			c1,0.3,1.8,0.9,2.7,1.5c0.9,0.5,1.7,1.1,2.5,1.7c1.5,1.4,3,2.7,4.3,4.3c-2-0.4-3.9-1-5.7-1.5c-1.9-0.3-3.6-0.9-5.4-1.2
			c-3.5-0.7-6.9-0.8-10.2-0.5c-3.3,0.3-6.5,1.4-9.6,3C421.5,231.1,418.5,233.2,415.4,235.8"/>
		<path class="st1" d="M423.9,304.9c-13.5,13.8-36.9,18.4-55.1-0.8c2.5,0.7,4.9,1.5,7.3,2.1c2.4,0.6,4.9,1.1,7.4,1.5
			c-1.4-0.4-2.8-0.9-4.1-1.3c-4.8-1.6-9.4-3.6-13.8-6.1c-0.4-0.2-0.8-0.5-1.1-0.9c-0.9-1.1-1.7-2.2-2.7-3.6c0.4,0.1,0.7,0.2,0.9,0.2
			c8.7,2.8,17.7,4.7,26.8,5.5c9.6,0.9,19.2,0.6,28.6-1.6c4.3-1,8.4-2.4,12.5-3.5c-0.4,1.2-2.4,3.6-4.1,4.8
			c-5.4,3.5-11.1,6.1-17.4,7.3c-0.3,0.1-0.5,0.1-0.8,0.3C413.6,308.3,418.8,307.1,423.9,304.9"/>
		<path class="st53" d="M432.3,292.8c-0.7-1.3-1.3-2.5-2-3.8c1.9,0,4.1,2,4.9,4.2c0.8,2.4,0.1,5.1-1.6,6.2c-0.1-0.7-0.1-1.4-0.2-2.2
			c-0.2,0.3-0.4,0.4-0.5,0.6c-5.4,8.4-12.4,14.9-21.7,18.7c-3.6,1.5-7.4,2.3-11.3,2.7c-10.6,1.1-19.7-2.5-27.9-8.9
			c-5-3.9-9.1-8.6-12.8-14c-0.1,1.2-0.2,2.1-0.3,3.1c-1.6-1.2-2.3-3.7-1.7-6c0.6-2.3,2.6-4.2,4.9-4.5c-0.6,1.2-1.2,2.3-1.8,3.6
			c1.7,0.6,3.4,1.2,5,1.7c12.7,3.9,25.6,5.8,38.9,5.2c9.4-0.5,18.5-2.4,27.2-6.2C431.6,293.1,431.9,293,432.3,292.8 M424,305
			c-5.1,2.3-10.3,3.5-15.7,4c0.3-0.1,0.5-0.2,0.8-0.3c6.3-1.3,12.1-3.8,17.4-7.3c1.8-1.2,3.8-3.6,4.1-4.8c-4,1.2-8.2,2.5-12.5,3.5
			c-9.4,2.2-19,2.5-28.6,1.6c-9.1-0.8-18.1-2.7-26.8-5.5c-0.2-0.1-0.4-0.1-0.9-0.2c1,1.3,1.8,2.5,2.7,3.6c0.3,0.4,0.7,0.7,1.1,0.9
			c4.4,2.5,9,4.5,13.8,6.1c1.4,0.5,2.8,0.9,4.1,1.3c-2.5-0.4-5-0.8-7.4-1.5c-2.4-0.6-4.9-1.4-7.3-2.1C387,323.4,410.5,318.8,424,305
			"/>
		<path class="st44" d="M500.8,212.7l6,112.3h14.4c0,0-3.2-6.7-5-10.4l3.9-101.9H500.8z"/>
		<path class="st54" d="M523,329.6h-26.4c-4.1,0-6.8-4.2-5-7.9l30.8-53.2c4.8-8.2,8.4-17.1,10.5-26.4c0.2-1,0.4-2,0.6-3
			c1.6-8.9-2.2-18.8-7.4-19.5l-60.5,104.2c-1.7,3.5-5.3,5.7-9.1,5.7H338.1c-3.9,0-7.4-2.2-9.2-5.7l-60.8-104.1c0,0-3.3-2-7.4,9.9
			c-1.4,4.2-1.5,8.9-1,13.2c0.8,7.3,3.5,14.3,7.4,20.6l35.9,58.1c1.7,3.7-1,7.9-5,7.9h-38.5c2,31.8,20.1,49,20.1,49l-0.3,26.7
			c-1.2,33.1,30.8,36.5,30.8,36.5l167.1,0.1c12.1,0.7,20.4-2.5,26.4-7.4c11.1-9.2,12.2-18.4,12.5-27.6c0.3-8.7-0.1-15.5-0.1-15.5
			C536.9,361.9,523,329.6,523,329.6z"/>
		<path class="st55" d="M523,329.6h-26.4c-4.1,0-6.8-4.2-5-7.9l30.8-53.2c4.8-8.2,8.4-17.1,10.5-26.4c0.2-1,0.4-2,0.6-3
			c1.6-8.9-2.2-18.8-7.4-19.5l-60.5,104.2c-1.7,3.5-5.3,5.7-9.1,5.7H338.1c-3.9,0-7.4-2.2-9.2-5.7l-60.8-104.1c0,0-3.3-2-7.4,9.9
			c-1.4,4.2-1.5,8.9-1,13.2c0.8,7.3,3.5,14.3,7.4,20.6l35.9,58.1c1.7,3.7-1,7.9-5,7.9h-38.5c2,31.8,20.1,49,20.1,49l-0.3,26.7
			c-1.2,33.1,30.8,36.5,30.8,36.5l167.1,0.1c12.1,0.7,20.4-2.5,26.4-7.4c11.1-9.2,12.2-18.4,12.5-27.6c0.3-8.7-0.1-15.5-0.1-15.5
			C536.9,361.9,523,329.6,523,329.6"/>
		<path class="st56" d="M441.8,319.5c-1.5-2.5-4.8-5.1-16.3-2.5c-11.5,2.6-19.8,11.4-19.8,11.4l-0.8,10.1c13,11.7,30.7,10.9,34,10
			c3.3-0.9,2.6-4.5,3.2-6.3c0.6-1.7-1-7.4,0.7-11.4S443.4,322,441.8,319.5"/>
		<path class="st56" d="M404.2,325.3c-1.1-0.6-9.5-1-9.5-1s-1.1,1.4-1.2,1.7c0,0.1-0.1,0.4-0.2,0.7c0,0-8.7-6.3-20.3-8.2
			c-11.6-1.9-14.8,0.8-16.2,3.4c-1.4,2.6-2.1,7.5-0.2,11.4c1.9,3.9,0.6,9.6,1.3,11.3c0.7,1.7,0.2,5.4,3.5,6.1
			c3.3,0.7,17.5-0.5,29.7-12.6c0.2,0.5,0.6,0.8,1,1.2c0.6,0.5,1.4,0.4,2.6,0.5c1.2,0.1,4.3,0.4,6,0.4c1.8,0,2.5-0.5,3.4-1.8
			c0.9-1.3,0-5.3,0.2-7.4C404.4,328.9,405.3,325.9,404.2,325.3"/>
		<path class="st4" d="M442.6,317.4c-2-1.9-4.6-2.9-7-3.3c-1.2-0.2-2.4-0.3-3.6-0.3c-1.3,0-2.5,0.2-3.7,0.4c-4.8,1-8.8,3.3-12.6,5.9
			c-3.3,2.3-6.3,4.9-9.1,7.7c0-0.9-0.2-1.8-0.8-2.5c-0.7-0.9-1.8-1.5-2.9-1.6l-6.6-0.5c-1.6-0.1-3.1,0.7-3.9,2.2
			c-0.1,0.1-0.1,0.3-0.2,0.4c-3.2-2.4-6.6-4.4-10.2-6.2c-4-1.8-8.2-3.5-12.9-3.9c-1.1-0.2-2.4-0.1-3.5-0.1c-1.2,0.1-2.3,0.3-3.5,0.6
			c-2.3,0.6-4.7,1.7-6.6,3.6c-1.9,1.9-2.9,4.7-2.9,7.3c0,1.3,0.2,2.7,0.8,4c0.4,1,0.8,1.9,1.2,2.9c0.7,1.9,1.3,3.8,1.5,5.8
			c0.1,1,0.1,1.9,0.1,2.9l-0.1,1.8c0,0.7,0.1,1.3,0.2,2c0.3,1.3,0.8,2.7,1.8,3.8c1,1.1,2.2,1.9,3.5,2.4c2.6,0.9,5.1,0.6,7.4,0.2
			c4.6-1,8.6-3.1,12.3-5.5c3.3-2.2,6.3-4.7,9-7.5c0.7,1.4,2.1,2.3,3.7,2.2l8.1-0.2c1.1,0,2.1-0.5,2.8-1.3c0.2-0.3,0.4-0.5,0.6-0.8
			c3.2,2.8,7.6,5.8,11.2,7.7c4.1,2.1,8.4,3.8,13.2,4.2c2.4,0.2,4.9,0.2,7.4-0.7c1.2-0.5,2.5-1.2,3.5-2.2c1-1,1.8-2.4,2.2-3.8
			c0.4-1.4,0.4-2.8,0.2-4.1c-0.1-1.1-0.2-2-0.2-3c0-2,0.4-4,1.1-6c0.3-1,0.6-2,1-3.1l0.1-0.4c0.1-0.2,0.1-0.4,0.2-0.5
			c0.1-0.4,0.2-0.7,0.2-1.1c0.1-0.7,0.2-1.4,0.1-2.1C445.8,322.1,444.6,319.3,442.6,317.4 M389.9,338.7c0.1,0.4,0.2,0.7,0.3,1
			c-3.2,2.2-6.5,4.2-10,5.9c-3.8,1.9-7.8,3.4-11.8,4c-2,0.2-4,0.2-5.5-0.4c-1.5-0.6-2.3-1.7-2.6-3.3c-0.1-0.4-0.1-0.8-0.1-1.3
			l0.1-1.5c0.1-1.2,0.1-2.4,0-3.6c-0.2-2.4-0.8-4.7-1.6-6.8c-0.4-1.1-0.8-2.1-1.3-3.1c-0.3-0.7-0.5-1.5-0.5-2.3
			c0-1.7,0.6-3.3,1.7-4.5c2.2-2.6,6.5-3.6,10.4-3.6c4,0.1,8.2,1.1,12.2,2.5c3.7,1.2,7.3,2.8,10.9,4.4
			C390.9,328.7,389.2,333.4,389.9,338.7 M403.7,327.9c-0.7,3.2-0.7,7.2-0.6,10c0,0.3-0.1,0.6-0.3,0.8c-0.2,0.2-0.5,0.4-0.8,0.4
			l-8.1,0.2c-0.6,0-1.1-0.4-1.2-1c-0.7-4.9,1.1-9.4,2.2-11.6v0c0.2-0.4,0.6-0.6,1-0.6c0,0,0.1,0,0.1,0l6.6,0.5
			c0.4,0,0.7,0.3,0.8,0.4C403.7,327.2,403.8,327.5,403.7,327.9 M441.6,326.2c0,0.2-0.1,0.4-0.1,0.6l-0.1,0.3l-0.1,0.4
			c-0.4,1.1-0.8,2.2-1.1,3.3c-0.7,2.3-1.1,4.7-1.1,7.2c0,1.2,0.1,2.5,0.3,3.6c0.1,0.9,0.1,1.8-0.1,2.5c-0.3,1.5-1.4,2.7-3.1,3.4
			c-1.7,0.7-3.7,0.9-5.8,0.9c-4.2-0.1-8.5-1.2-12.5-2.8c-3.7-1.4-8.3-3.9-12-6.1c0.3-0.6,0.4-1.2,0.4-1.8c-0.1-2.6-0.1-6.4,0.5-9.3
			c0-0.1,0-0.2,0-0.3c3.3-2.3,6.7-4.5,10.2-6.3c3.9-2,8-3.8,12-4.4c1-0.1,2-0.2,3-0.1c1,0.1,2,0.2,3,0.4c1.9,0.5,3.7,1.3,4.9,2.5
			c1.2,1.2,1.9,2.9,1.9,4.6C441.7,325.4,441.6,325.8,441.6,326.2"/>
	</g>
	<g class="st0">
		<defs>
			<path id="SVGID_13_" d="M462.7,347.7c-1.8,4.8,0.4,10.3,4.9,12.3c4.5,2,9.6-0.2,11.4-5c1.8-4.8-0.4-10.3-4.9-12.3
				c-1.1-0.5-2.3-0.7-3.4-0.7C467.2,341.9,464,344.1,462.7,347.7"/>
		</defs>
		<clipPath id="SVGID_14_">
			<use xlink:href="#SVGID_13_"  style="overflow:visible;"/>
		</clipPath>
		
			<linearGradient id="SVGID_15_" gradientUnits="userSpaceOnUse" x1="0" y1="460.3525" x2="1" y2="460.3525" gradientTransform="matrix(-10.9449 1.1162 1.1162 10.9449 -34.8719 -4687.4043)">
			<stop  offset="0" style="stop-color:#F99C21"/>
			<stop  offset="0.157" style="stop-color:#F99C21"/>
			<stop  offset="0.3701" style="stop-color:#FFCA11"/>
			<stop  offset="1" style="stop-color:#FFCA11"/>
		</linearGradient>
		<polygon class="st57" points="482.8,361.8 461.1,364 458.9,342.1 480.5,339.9 		"/>
	</g>
	<g class="st0">
		<defs>
			<path id="SVGID_16_" d="M474.6,353.4c-1.6,4.2-5.5,6.1-9.8,4.6c0.2,0.1,1.1,0.8,1.3,0.9c4.4,2,8.5-0.4,9.7-5
				c2.5-9.5-5.7-11.7-6.1-11.8C474.2,344,476.2,348.9,474.6,353.4"/>
		</defs>
		<clipPath id="SVGID_17_">
			<use xlink:href="#SVGID_16_"  style="overflow:visible;"/>
		</clipPath>
		<defs>
			<filter id="Adobe_OpacityMaskFilter" filterUnits="userSpaceOnUse" x="461" y="339.3" width="21.1" height="24.3">
				<feColorMatrix  type="matrix" values="1 0 0 0 0  0 1 0 0 0  0 0 1 0 0  0 0 0 1 0"/>
			</filter>
		</defs>
		<mask maskUnits="userSpaceOnUse" x="461" y="339.3" width="21.1" height="24.3" id="SVGID_18_">
			<g class="st58">
				
					<linearGradient id="SVGID_19_" gradientUnits="userSpaceOnUse" x1="0" y1="460.2816" x2="1" y2="460.2816" gradientTransform="matrix(4.6378 -22.1407 -22.1407 -4.6378 10659.9258 2498.3174)">
					<stop  offset="0" style="stop-color:#000000"/>
					<stop  offset="0.138" style="stop-color:#000000"/>
					<stop  offset="0.573" style="stop-color:#FFFFFF"/>
					<stop  offset="1" style="stop-color:#FFFFFF"/>
				</linearGradient>
				<polygon class="st59" points="461,360 465.3,339.3 482.1,342.8 477.8,363.6 				"/>
			</g>
		</mask>
		
			<linearGradient id="SVGID_20_" gradientUnits="userSpaceOnUse" x1="0" y1="460.2816" x2="1" y2="460.2816" gradientTransform="matrix(4.6378 -22.1407 -22.1407 -4.6378 10659.9248 2498.3171)">
			<stop  offset="0" style="stop-color:#FFC808"/>
			<stop  offset="0.138" style="stop-color:#FFC808"/>
			<stop  offset="0.573" style="stop-color:#FDEA61"/>
			<stop  offset="1" style="stop-color:#FDEA61"/>
		</linearGradient>
		<polygon class="st60" points="461,360 465.3,339.3 482.1,342.8 477.8,363.6 		"/>
	</g>
	<g class="st0">
		<defs>
			<rect id="SVGID_21_" width="595.3" height="460.3"/>
		</defs>
		<clipPath id="SVGID_22_">
			<use xlink:href="#SVGID_21_"  style="overflow:visible;"/>
		</clipPath>
		<path class="st61" d="M468.1,350.4c-0.2-0.6-0.9-1.1-1.6-0.9c-0.6,0.1-1,0.8-0.8,1.4c0.2,0.6,0.9,1.1,1.6,0.9
			C467.9,351.7,468.3,351.1,468.1,350.4"/>
		<path class="st61" d="M472.8,349.5c-0.2-0.6-0.9-1.1-1.6-0.9c-0.6,0.1-1,0.8-0.8,1.4c0.2,0.6,0.9,1.1,1.6,0.9
			C472.7,350.7,473,350.1,472.8,349.5"/>
	</g>
	<g class="st0">
		<defs>
			<path id="SVGID_23_" d="M467.9,342.5l-0.5,0.3l-0.5,0.3c-0.1,0.1-0.3,0.2-0.4,0.3c-0.6,0.4-1.1,0.9-1.6,1.4
				c-0.1,0.1-0.1,0.1-0.2,0.2l-0.2,0.2l-0.2,0.2l-0.1,0.1l-0.1,0.1l-0.2,0.2l-0.2,0.2c-0.1,0.1-0.1,0.1-0.2,0.2
				c0,0.1-0.1,0.1-0.1,0.2c-0.2,0.3-0.4,0.6-0.5,0.9c-0.2,0.3-0.3,0.7-0.4,1c-0.2,0.7-0.3,1.4-0.3,2.2c0,0.7,0.1,1.5,0.2,2.3
				c0.1,0.4,0.2,0.7,0.3,1.1c0.1,0.4,0.3,0.7,0.4,1.1c0.2,0.4,0.3,0.7,0.5,1.1c0.2,0.3,0.4,0.7,0.7,1c-0.4-0.7-0.8-1.4-1.1-2.1
				c-0.3-0.7-0.5-1.5-0.7-2.2c-0.3-1.5-0.3-3,0.2-4.3c0.1-0.3,0.2-0.7,0.4-1c0.1-0.3,0.3-0.6,0.5-0.9c0-0.1,0.1-0.1,0.1-0.2
				c0-0.1,0.1-0.1,0.1-0.2l0.2-0.2l0.2-0.2l0.1-0.1l0.1-0.1l0.2-0.2l0.2-0.2c0.1-0.1,0.1-0.1,0.2-0.2c1-1,2.1-1.9,3.4-2.6
				L467.9,342.5z"/>
		</defs>
		<clipPath id="SVGID_24_">
			<use xlink:href="#SVGID_23_"  style="overflow:visible;"/>
		</clipPath>
		<defs>
			<filter id="Adobe_OpacityMaskFilter_1_" filterUnits="userSpaceOnUse" x="460.8" y="341.6" width="9.1" height="16.1">
				<feColorMatrix  type="matrix" values="1 0 0 0 0  0 1 0 0 0  0 0 1 0 0  0 0 0 1 0"/>
			</filter>
		</defs>
		<mask maskUnits="userSpaceOnUse" x="460.8" y="341.6" width="9.1" height="16.1" id="SVGID_25_">
			<g class="st62">
				
					<linearGradient id="SVGID_26_" gradientUnits="userSpaceOnUse" x1="0" y1="460.2791" x2="1" y2="460.2791" gradientTransform="matrix(-6.9838 0.7122 0.7122 6.9838 141.3006 -2865.1826)">
					<stop  offset="0" style="stop-color:#000000"/>
					<stop  offset="0.138" style="stop-color:#000000"/>
					<stop  offset="0.573" style="stop-color:#FFFFFF"/>
					<stop  offset="1" style="stop-color:#FFFFFF"/>
				</linearGradient>
				<polygon class="st63" points="469.9,357 462.3,357.7 460.8,342.4 468.3,341.6 				"/>
			</g>
		</mask>
		
			<linearGradient id="SVGID_27_" gradientUnits="userSpaceOnUse" x1="0" y1="460.2791" x2="1" y2="460.2791" gradientTransform="matrix(-6.9838 0.7122 0.7122 6.9838 141.3006 -2865.1831)">
			<stop  offset="0" style="stop-color:#FFC808"/>
			<stop  offset="0.138" style="stop-color:#FFC808"/>
			<stop  offset="0.573" style="stop-color:#FDEA61"/>
			<stop  offset="1" style="stop-color:#FDEA61"/>
		</linearGradient>
		<polygon class="st64" points="469.9,357 462.3,357.7 460.8,342.4 468.3,341.6 		"/>
	</g>
	<g class="st0">
		<defs>
			<path id="SVGID_28_" d="M310.4,348.7c-1.8,4.8,0.4,10.3,4.9,12.3c4.5,2,9.6-0.2,11.4-5c1.8-4.8-0.4-10.3-4.9-12.3
				c-1.1-0.5-2.3-0.7-3.4-0.7C315,343,311.8,345.1,310.4,348.7"/>
		</defs>
		<clipPath id="SVGID_29_">
			<use xlink:href="#SVGID_28_"  style="overflow:visible;"/>
		</clipPath>
		
			<linearGradient id="SVGID_30_" gradientUnits="userSpaceOnUse" x1="0" y1="460.3526" x2="1" y2="460.3526" gradientTransform="matrix(-10.9449 1.1162 1.1162 10.9449 -187.1044 -4686.3574)">
			<stop  offset="0" style="stop-color:#F99C21"/>
			<stop  offset="0.157" style="stop-color:#F99C21"/>
			<stop  offset="0.3701" style="stop-color:#FFCA11"/>
			<stop  offset="1" style="stop-color:#FFCA11"/>
		</linearGradient>
		<polygon class="st65" points="330.5,362.8 308.9,365 306.6,343.2 328.3,341 		"/>
	</g>
	<g class="st0">
		<defs>
			<path id="SVGID_31_" d="M322.3,354.4c-1.6,4.2-5.5,6.1-9.8,4.6c0.2,0.1,1.1,0.8,1.3,0.9c4.4,2,8.5-0.4,9.7-5
				c2.5-9.5-5.7-11.7-6.1-11.8C321.9,345,324,349.9,322.3,354.4"/>
		</defs>
		<clipPath id="SVGID_32_">
			<use xlink:href="#SVGID_31_"  style="overflow:visible;"/>
		</clipPath>
		<defs>
			<filter id="Adobe_OpacityMaskFilter_2_" filterUnits="userSpaceOnUse" x="308.7" y="340.3" width="21.1" height="24.3">
				<feColorMatrix  type="matrix" values="1 0 0 0 0  0 1 0 0 0  0 0 1 0 0  0 0 0 1 0"/>
			</filter>
		</defs>
		<mask maskUnits="userSpaceOnUse" x="308.7" y="340.3" width="21.1" height="24.3" id="SVGID_33_">
			<g class="st66">
				
					<linearGradient id="SVGID_34_" gradientUnits="userSpaceOnUse" x1="0" y1="460.2816" x2="1" y2="460.2816" gradientTransform="matrix(4.6378 -22.1407 -22.1407 -4.6378 10507.6934 2499.364)">
					<stop  offset="0" style="stop-color:#000000"/>
					<stop  offset="0.138" style="stop-color:#000000"/>
					<stop  offset="0.573" style="stop-color:#FFFFFF"/>
					<stop  offset="1" style="stop-color:#FFFFFF"/>
				</linearGradient>
				<polygon class="st67" points="308.7,361.1 313.1,340.3 329.9,343.8 325.5,364.6 				"/>
			</g>
		</mask>
		
			<linearGradient id="SVGID_35_" gradientUnits="userSpaceOnUse" x1="0" y1="460.2816" x2="1" y2="460.2816" gradientTransform="matrix(4.6378 -22.1407 -22.1407 -4.6378 10507.6924 2499.3638)">
			<stop  offset="0" style="stop-color:#FFC808"/>
			<stop  offset="0.138" style="stop-color:#FFC808"/>
			<stop  offset="0.573" style="stop-color:#FDEA61"/>
			<stop  offset="1" style="stop-color:#FDEA61"/>
		</linearGradient>
		<polygon class="st68" points="308.7,361.1 313.1,340.3 329.9,343.8 325.5,364.6 		"/>
	</g>
	<g class="st0">
		<defs>
			<rect id="SVGID_36_" width="595.3" height="460.3"/>
		</defs>
		<clipPath id="SVGID_37_">
			<use xlink:href="#SVGID_36_"  style="overflow:visible;"/>
		</clipPath>
		<path class="st69" d="M315.8,351.4c-0.2-0.6-0.9-1.1-1.6-0.9c-0.6,0.1-1,0.8-0.8,1.4c0.2,0.7,0.9,1.1,1.6,0.9
			C315.7,352.7,316,352.1,315.8,351.4"/>
		<path class="st69" d="M320.6,350.5c-0.2-0.6-0.9-1.1-1.6-0.9c-0.6,0.1-1,0.8-0.8,1.4c0.2,0.6,0.9,1.1,1.6,0.9
			C320.5,351.8,320.8,351.2,320.6,350.5"/>
	</g>
	<g class="st0">
		<defs>
			<path id="SVGID_38_" d="M315.7,343.6l-0.5,0.3l-0.5,0.3c-0.1,0.1-0.3,0.2-0.4,0.3c-0.6,0.4-1.1,0.9-1.6,1.4
				c-0.1,0.1-0.1,0.1-0.2,0.2l-0.2,0.2l-0.2,0.2l-0.1,0.1l-0.1,0.1l-0.2,0.2l-0.2,0.2c-0.1,0.1-0.1,0.1-0.2,0.2
				c0,0.1-0.1,0.1-0.1,0.2c-0.2,0.3-0.4,0.6-0.5,1c-0.2,0.3-0.3,0.7-0.4,1c-0.2,0.7-0.3,1.4-0.3,2.2c0,0.7,0.1,1.5,0.2,2.3
				c0.1,0.4,0.2,0.7,0.3,1.1c0.1,0.4,0.3,0.7,0.4,1.1c0.2,0.4,0.3,0.7,0.5,1.1c0.2,0.3,0.4,0.7,0.7,1c-0.4-0.7-0.8-1.4-1.1-2.1
				c-0.3-0.7-0.5-1.5-0.7-2.2c-0.3-1.5-0.3-3,0.2-4.3c0.1-0.3,0.2-0.7,0.4-1c0.1-0.3,0.3-0.6,0.5-0.9c0-0.1,0.1-0.1,0.1-0.2
				c0-0.1,0.1-0.1,0.1-0.2l0.2-0.2l0.2-0.2l0.1-0.1l0.1-0.1l0.2-0.2l0.2-0.2c0.1-0.1,0.1-0.1,0.2-0.2c1-1,2.1-1.9,3.4-2.6
				L315.7,343.6z"/>
		</defs>
		<clipPath id="SVGID_39_">
			<use xlink:href="#SVGID_38_"  style="overflow:visible;"/>
		</clipPath>
		<defs>
			<filter id="Adobe_OpacityMaskFilter_3_" filterUnits="userSpaceOnUse" x="308.5" y="342.7" width="9.1" height="16.1">
				<feColorMatrix  type="matrix" values="1 0 0 0 0  0 1 0 0 0  0 0 1 0 0  0 0 0 1 0"/>
			</filter>
		</defs>
		<mask maskUnits="userSpaceOnUse" x="308.5" y="342.7" width="9.1" height="16.1" id="SVGID_40_">
			<g class="st70">
				
					<linearGradient id="SVGID_41_" gradientUnits="userSpaceOnUse" x1="0" y1="460.2791" x2="1" y2="460.2791" gradientTransform="matrix(-6.9838 0.7122 0.7122 6.9838 -10.9318 -2864.136)">
					<stop  offset="0" style="stop-color:#000000"/>
					<stop  offset="0.138" style="stop-color:#000000"/>
					<stop  offset="0.573" style="stop-color:#FFFFFF"/>
					<stop  offset="1" style="stop-color:#FFFFFF"/>
				</linearGradient>
				<polygon class="st71" points="317.6,358 310.1,358.8 308.5,343.5 316.1,342.7 				"/>
			</g>
		</mask>
		
			<linearGradient id="SVGID_42_" gradientUnits="userSpaceOnUse" x1="0" y1="460.2791" x2="1" y2="460.2791" gradientTransform="matrix(-6.9838 0.7122 0.7122 6.9838 -10.9318 -2864.1365)">
			<stop  offset="0" style="stop-color:#FFC808"/>
			<stop  offset="0.138" style="stop-color:#FFC808"/>
			<stop  offset="0.573" style="stop-color:#FDEA61"/>
			<stop  offset="1" style="stop-color:#FDEA61"/>
		</linearGradient>
		<polygon class="st72" points="317.6,358 310.1,358.8 308.5,343.5 316.1,342.7 		"/>
	</g>
	<g class="st0">
		<defs>
			<rect id="SVGID_43_" width="595.3" height="460.3"/>
		</defs>
		<clipPath id="SVGID_44_">
			<use xlink:href="#SVGID_43_"  style="overflow:visible;"/>
		</clipPath>
		<path class="st73" d="M477,313.8c3.5-7.6,7.2-15.1,11.1-22.5c3.9-7.4,7.9-14.8,11.9-22.1c4.1-7.3,8.3-14.5,12.6-21.7
			c4.3-7.2,8.7-14.3,13.5-21.2c-3.5,7.6-7.2,15.1-11.1,22.5c-3.9,7.4-7.9,14.8-11.9,22.1c-4.1,7.3-8.3,14.5-12.6,21.7
			C486.2,299.7,481.8,306.8,477,313.8"/>
		<path class="st73" d="M321.8,323.2c-5.1-7.4-9.9-15.1-14.5-22.7c-4.7-7.7-9.2-15.4-13.7-23.2c-4.4-7.8-8.8-15.7-13-23.6
			c-4.2-7.9-8.4-15.9-12.2-24.1c5.1,7.4,9.9,15.1,14.5,22.7c4.7,7.7,9.2,15.4,13.7,23.2c4.4,7.8,8.8,15.7,13,23.6
			C313.8,307.1,317.9,315.1,321.8,323.2"/>
		<path class="st73" d="M289.3,394.9c0.6,7.1,0.8,5.2,1.1,12.4l0.2,5.4l0.1,2.7c0,0.7,0.2,1.5,0.4,2.3c0.4,1.6,1,3.1,1.8,4.4
			c0.8,1.3,1.8,2.5,3,3.5c2.4,1.9,5.5,2.9,8.7,3.3c0.8,0,1.5,0.2,2.5,0.2l2.7,0l5.4-0.1l21.4-0.1l21.4,0.1
			c7.1,0.1,14.3,0.2,21.4,0.4c14.3,0.4,28.5,1,42.8,2c-14.3,1.1-28.6,1.7-42.8,2c-7.1,0.2-14.3,0.3-21.4,0.4l-21.4,0.1l-21.4-0.1
			l-5.4-0.1l-2.7,0c-0.9,0-1.9-0.2-2.9-0.3c-3.9-0.5-7.8-2-10.8-4.7c-1.5-1.4-2.7-3-3.7-4.8c-0.9-1.8-1.5-3.7-1.8-5.6
			c-0.1-1-0.3-1.9-0.2-3l0.1-2.7l0.2-5.4C288.2,400.1,288.7,402.1,289.3,394.9"/>
		<path class="st74" d="M532.9,344.8c0,0,25.2,11.3,21.3,27.1c0,0-9.9,17.3-20.4,18.6l13.2,19.1c0,0,17.7-10.7,19.4-19
			c1.7-8.4,5.8-14.8,5.4-21.3c-0.4-6.5-12.2-21-40.5-33.3l0.9,3.9L532.9,344.8z"/>
		<path class="st75" d="M532.1,339.6c0,0,21.3,8.3,27.8,17.2c6.5,8.9,12.1,29.5-17.1,45.7l4.2,5.7c0,0,14.1-10.1,17.3-14.1
			c3.2-4,9.5-18.2,8.6-22.2c-1-4-8.1-24-41.6-36.1L532.1,339.6z"/>
		<path class="st73" d="M507.2,391c0,0,5.8-2.9,12.7-3.3c7-0.3,18.7,6.6,22.8,14.7c4.1,8.1,4.5,14.6-1.9,22.5
			c0,0-8.7,24.9-36.1,20.8c0,0-18.4,8.2-25-12c0,0-4.6,0.6-8.5-7.9c0,0-8.6-1.8-10.8-6.3c-2.2-4.6,3.9-17.7,5.5-20.5
			c1.7-2.8,10.3-14,13.5-14.5c3.1-0.5,9.2,0.6,12.7,2.3C495.6,388.5,507.2,391,507.2,391"/>
		<path class="st76" d="M520,396.7l-32.9-5.1c-3.1-0.5-6.2,0.7-8.1,3.2c-5.2,6.5-14.9,19.6-15.4,26.4v1.7c0,0-5.8-2.2-4.6-8
			c1.1-5.8,16-29.3,20.4-30.3c4.4-1,10.5,1.5,11.9,2.2S520,396.7,520,396.7"/>
		<path class="st76" d="M491.6,419.8c0,0-6.1,10.3-9.2,11.3c-3.1,1-9.3-3.7-9.6-5.7l-1.3,0.1c0,0,0.6,5.3,5.5,7.5
			c4.9,2.3,7.9,0.3,8.6-0.6S491.6,423.7,491.6,419.8"/>
		<path class="st77" d="M571.4,362.7c-1.9-3.6-4.5-6.8-7.4-9.5c-4.5-4.1-9.6-7.3-14.9-9.9c-1.6-0.8-17-8.3-18.8-9l0.4,1.4
			c0,0,25.1,11.3,32.6,19.9c2.2,2.6,4.1,5.4,5.3,8.4c1.4,3.4,1.9,6.9,1.5,10.5c-0.8,7.1-4.5,13.8-9.3,19.1c-2.4,2.7-5.2,5.1-8.2,7
			c-2.2,1.4-4.5,2.6-6.8,3.3c-0.2-0.3-0.3-0.7-0.5-1c-1.4-2.5-3.2-4.7-5-6.8c-1-1-2-2.1-3-3.1c1.6-0.9,3-1.8,4.5-2.7
			c2.5-1.7,5-3.6,7.2-5.8c2.2-2.2,4.2-4.7,5.5-7.7c1.4-2.9,2.1-6.2,1.7-9.4c-0.1-0.6-0.2-1.2-0.3-1.8c-0.4-2-1.3-4-2.4-5.6
			c-6.7-10.5-23-16.3-23-16.3l-1,2.4c5.5,1.9,10.8,4.5,15.3,8c4.5,3.4,8.1,8.3,8.1,13.5c0.1,5.3-3.2,9.9-7.3,13.4
			c-4.1,3.5-9.3,6.2-14.3,8l0.1,0.2c-1.8-0.9-3.6-1.5-5.5-1.8c-5.7-1-13.9,0.7-19.3,4c5.3-1.2,13.7-2.3,18.5-0.8
			c2.4,0.7,4.6,1.8,6.5,3.3c2,1.4,3.7,3.2,5.5,5.2c1.7,1.9,3.4,3.9,4.6,6c1.4,2.1,2.4,4.3,2.8,6.6c0.4,2.3,0.2,4.7-0.8,7.1
			c-0.7,1.9-1.8,3.7-2.9,5.6c-0.1-2.5-1.2-4.9-2.9-6.4c1.1,2.3,1.5,4.7,0.9,6.9c-0.5,2.2-1.6,4.3-2.9,6.2c-2.8,3.7-6.4,6.9-10.5,9.2
			c-4,2.4-8.5,4.1-13.1,4.3c-4.2,0.2-8.6-0.9-12.5-3.3c0.3,0,0.6,0,0.9,0c2.2-0.1,4.4-0.8,6.4-1.8c2-1,3.8-2.5,5.2-4.2
			c1.4-1.7,2.6-3.6,3.2-5.7c-2.7,3.3-5.7,6.2-9.3,8c-1.8,0.9-3.7,1.7-5.7,2.1c-2,0.5-4.1,0.6-6.2,0.8c1.6,0.5,3.4,0.8,5.1,0.9
			c1.2,1.5,2.8,2.8,4.5,3.9c-3.2,1.5-10.1,0.6-13.9-1.1c-3.3-1.5-6.4-6.6-7.4-8.4c0.6-0.1,1.1-0.2,1.6-0.5c0.8-0.4,1.4-0.9,2-1.5
			c0.6-0.7,0.9-1.2,1.3-1.8c0.8-1.2,1.5-2.4,2.1-3.8c1.2-2.6,2.1-5.4,2.1-8.3c-0.9,2.7-2.2,5.1-3.6,7.5c-0.7,1.2-1.5,2.3-2.3,3.4
			c-0.8,1.2-1.5,2.1-2.6,2.5c-1,0.5-2.2,0.6-3.3,0.2c-1.3-0.3-2.4-0.9-3.5-1.7c-1.9-1.4-3.5-3.3-4.7-5.5c0.3-0.1,0.6-0.3,0.8-0.4
			c0.6-0.4,1-0.9,1.4-1.5c0.3-0.6,0.5-1.1,0.7-1.6c0.9-2.1,1.9-4.2,2.7-6.3c-1.3,1.9-2.5,3.8-3.8,5.7l-0.9,1.4
			c-0.3,0.4-0.6,0.7-1,0.9c-0.8,0.4-1.6,0.4-2.5-0.1c-2.1-0.8-4-1.9-5.5-3.2c-1.5-1.4-2.6-3.1-2.8-4.8c-0.1-0.4-0.1-0.9,0-1.3l0-0.1
			c0,0,0,0,0-0.1l0.1-0.4l0.2-0.8c0.3-1.1,0.6-2.1,1-3.1c0.8-2,1.6-4.1,2.7-6c2-3.9,4.6-7.5,7.5-10.9c1.4-1.7,2.9-3.3,4.5-4.8
			c0.8-0.7,1.7-1.6,2.3-2c0.7-0.5,1.5-0.8,2.3-0.9c0.8-0.2,1.7-0.1,2.6,0.1l3.2,1c2.2,0.7,4.3,1.4,6.5,2.1
			c8.7,2.8,17.5,5.4,26.4,7.6c-8.3-3.9-16.8-7.3-25.3-10.7c-2.1-0.8-4.2-1.7-6.4-2.5c-1.1-0.4-2-0.8-3.3-1.2
			c-1.4-0.4-2.8-0.6-4.2-0.4c-1.4,0.2-2.8,0.7-4,1.5c-1.3,0.9-2,1.6-2.9,2.4c-1.7,1.6-3.3,3.3-4.9,5.1c-3,3.6-5.7,7.5-7.8,11.8
			c-1.1,2.1-1.9,4.4-2.6,6.6c-0.3,1.1-0.7,2.3-0.9,3.4l-0.2,0.9l-0.1,0.4l-0.1,0.3l0,0.3c0,0.8,0,1.5,0.2,2.1c0.6,2.8,2.4,5,4.4,6.4
			c2.1,1.5,4.3,2.4,6.6,3c0.5,0.2,1.4,0.4,2.1,0.2c0.3,0,0.6-0.1,1-0.2c0.5,2.5,1.8,4.9,3.8,6.7c1.1,1,2.5,1.8,3.9,2.3
			c0.2,0.1,0.3,0.1,0.5,0.1c2.6,7.3,9,11.8,13.2,12.9c3.8,1,9.6-1.6,11.3-2.4c0.3-0.1,0.4-0.2,0.6-0.3c2.3,1.2,4.8,1.9,7.4,2.1
			c5.5,0.4,10.7-1.4,15.3-4c4.5-2.7,8.5-6.4,11.1-11.1c1.3-2.3,2.2-5,2.2-7.7c0,0,0-0.1,0-0.1c1.8-1.5,3.4-3.2,4.7-5.2
			c1.4-2.2,2.2-5,2.2-7.7c3.4-1.3,6.3-3.1,9-5.2c3.3-2.6,6.2-5.6,8.7-8.9c4.9-6.6,8.5-14.5,8.7-22.9
			C574.3,370.6,573.2,366.3,571.4,362.7"/>
		<path class="st77" d="M270.8,367.5c0,0,12.6,17.4,25.6,29.3c0,0-11.9-6.5-25.6-19.8"/>
		<path class="st77" d="M523.5,330.2c0,0-12.5-27.1-16.8-34.7c0,0,11.5,15.7,18,29"/>
		<path class="st78" d="M208.6,396.5L208.6,396.5c-3.8,1.1-7.7-1.1-8.7-4.9l-23-82.8l6.5-1.5l6.5-3l0-3.5l23.7,87
			C214.6,391.6,212.4,395.5,208.6,396.5"/>
		<polygon class="st78" points="173.3,259.1 173.3,259.1 166.6,257.9 159.4,260.5 142.4,202.9 156,199.1 		"/>
		<path class="st79" d="M119.2,214.4c-53.6,0-97.2-43.6-97.2-97.2C22,63.6,65.6,20,119.2,20c53.6,0,97.2,43.6,97.2,97.2
			C216.4,170.8,172.8,214.4,119.2,214.4 M119.2,35.8c-44.9,0-81.4,36.5-81.4,81.4c0,44.9,36.5,81.4,81.4,81.4s81.4-36.5,81.4-81.4
			C200.7,72.3,164.1,35.8,119.2,35.8"/>
		<path class="st73" d="M105.9,25.7c3.1-0.5,6.2-0.7,9.3-0.8c3.1-0.1,6.2-0.1,9.3,0.2c6.2,0.4,12.4,1.4,18.5,3
			c6.1,1.6,12,3.8,17.6,6.6c5.6,2.8,10.9,6.3,15.8,10.2c4.9,4,9.4,8.4,13.3,13.4l1.5,1.8l1.4,1.9c0.9,1.3,1.8,2.6,2.7,3.9
			c1.6,2.7,3.4,5.3,4.7,8.1c5.8,11.1,9.6,23.1,11.7,35.3c-3.3-11.9-7.9-23.5-13.9-34.1c-1.4-2.7-3.2-5.2-4.8-7.8
			c-0.9-1.3-1.8-2.5-2.7-3.7l-1.4-1.8l-1.5-1.7c-3.8-4.7-8.2-9-13-12.8c-9.4-7.7-20.5-13.3-32.2-16.9c-5.9-1.8-11.9-3.1-18-3.8
			C118.3,25.7,112.1,25.5,105.9,25.7"/>
	</g>
</g>
</svg>
